<?xml version="1.0" encoding="UTF-8"?>
<!-- Generator: visioncortex VTracer 0.6.3 -->
<svg version="1.1" xmlns="http://www.w3.org/2000/svg" width="1280" height="1068">
<path d="M0 0 C1.25 0.21 2.51 0.41 3.8 0.62 C9.95 1.68 15.84 2.96 21.78 4.86 C24.18 5.58 26.55 6.08 29.01 6.54 C34.76 7.63 40.33 9.22 45.94 10.88 C46.99 11.19 48.05 11.5 49.14 11.82 C56.64 14.05 63.91 16.53 71.12 19.56 C72.1 19.96 73.07 20.36 74.07 20.77 C76.07 21.59 78.07 22.42 80.05 23.27 C82.14 24.15 84.23 25.01 86.32 25.86 C95.77 29.76 104.7 34.43 113.69 39.26 C116.12 40.56 118.57 41.84 121.01 43.1 C121.79 43.51 122.56 43.91 123.36 44.32 C124.83 45.09 126.31 45.85 127.78 46.61 C131.04 48.31 133.57 49.95 136.12 52.56 C137.74 53.5 139.39 54.4 141.06 55.25 C157.49 64.02 172.67 75.89 187.12 87.56 C185.67 91.84 183.52 94.95 180.75 98.5 C180.31 99.06 179.88 99.62 179.43 100.19 C175.57 105.1 171.53 109.83 167.45 114.54 C163.2 119.45 159.14 124.47 155.12 129.56 C154.16 130.77 153.19 131.99 152.21 133.2 C151.7 133.84 151.18 134.48 150.65 135.15 C149.6 136.46 148.54 137.77 147.49 139.09 C144.7 142.57 141.95 146.08 139.25 149.62 C137.26 152.21 135.22 154.55 132.88 156.81 C130.14 159.32 130.14 159.32 128.78 161.85 C126.8 165.1 124.42 167.89 121.94 170.75 C118.6 174.64 115.3 178.54 112.12 182.56 C108.58 187.04 104.9 191.4 101.19 195.75 C97.79 199.75 94.5 203.83 91.23 207.95 C88.21 211.69 85.1 215.35 81.98 219.01 C77.05 224.43 77.05 224.43 73.19 230.56 C71.67 233.42 69.43 235.31 67.12 237.56 C65.76 239.2 64.43 240.87 63.12 242.56 C62.53 243.32 61.93 244.07 61.32 244.84 C60.36 246.07 60.36 246.07 59.38 247.31 C58.45 248.48 58.45 248.48 57.52 249.67 C56.03 251.31 56.03 251.31 56.12 252.56 C64.9 253.29 73.64 253.67 82.44 253.81 C83.93 253.83 83.93 253.83 85.45 253.86 C89.58 253.93 93.71 253.99 97.84 254.04 C100.9 254.08 103.95 254.13 107 254.18 C107.93 254.19 108.86 254.2 109.82 254.21 C114.64 254.3 118.6 254.7 123.12 256.56 C118.94 261.62 114.49 266.26 109.79 270.84 C107.06 273.63 104.52 276.52 101.97 279.47 C98.98 282.87 95.86 286.15 92.75 289.44 C87.96 294.52 83.22 299.65 78.57 304.87 C76.56 307.09 74.52 309.27 72.46 311.45 C71.8 312.14 71.13 312.84 70.45 313.56 C69.15 314.94 67.84 316.31 66.53 317.68 C62.86 321.55 59.61 325.53 56.47 329.83 C54.83 331.94 53.03 333.59 50.94 335.25 C48.62 337.09 47.18 338.47 45.66 341.03 C44 343.78 42.28 345.35 39.81 347.38 C36.15 350.52 33.36 353.7 30.58 357.63 C28.58 360.28 26.26 362.5 23.88 364.81 C22.19 366.5 20.62 368.25 19.06 370.06 C14.45 375.41 9.58 380.53 4.75 385.69 C1.48 389.18 -1.76 392.68 -5 396.19 C-5.49 396.72 -5.97 397.24 -6.48 397.79 C-7.45 398.85 -8.43 399.91 -9.41 400.97 C-11.89 403.67 -14.39 406.37 -16.88 409.06 C-17.87 410.14 -18.87 411.23 -19.87 412.31 C-21.88 414.49 -23.9 416.67 -25.91 418.85 C-30.74 424.08 -35.57 429.31 -40.38 434.56 C-45.65 440.32 -50.94 446.07 -56.25 451.8 C-57.98 453.68 -59.71 455.56 -61.43 457.44 C-78.22 475.68 -78.22 475.68 -83.88 477.56 C-82.59 466.84 -78.78 456.88 -75.25 446.75 C-74.61 444.89 -73.97 443.03 -73.33 441.17 C-69.89 431.22 -66.38 421.29 -62.71 411.42 C-59.67 403.15 -56.92 394.77 -54.16 386.4 C-51.67 378.85 -49.12 371.32 -46.31 363.88 C-43.07 355.28 -40.17 346.58 -37.3 337.86 C-35.43 332.19 -33.53 326.53 -31.52 320.9 C-31.15 319.85 -30.78 318.8 -30.4 317.72 C-29.69 315.75 -28.98 313.78 -28.26 311.81 C-27.95 310.92 -27.63 310.04 -27.31 309.13 C-27.03 308.37 -26.75 307.6 -26.47 306.81 C-25.66 304.14 -25.66 304.14 -25.88 299.56 C-46.66 299.23 -67.45 298.9 -88.88 298.56 C-89.88 295.56 -89.88 295.56 -88.79 292.95 C-88.22 291.92 -87.66 290.88 -87.08 289.81 C-86.45 288.66 -85.83 287.5 -85.19 286.31 C-84.5 285.06 -83.81 283.81 -83.12 282.56 C-82.43 281.28 -81.73 280.01 -81.04 278.73 C-76.31 270.05 -71.43 261.47 -66.43 252.95 C-63.78 248.42 -61.22 243.84 -58.69 239.25 C-55.21 232.97 -51.69 226.71 -48.12 220.48 C-45.29 215.54 -42.49 210.58 -39.69 205.62 C-39.14 204.65 -38.59 203.68 -38.02 202.68 C-35.12 197.55 -32.23 192.42 -29.36 187.29 C-28.79 186.26 -28.21 185.24 -27.62 184.19 C-26.53 182.25 -25.45 180.31 -24.36 178.36 C-21.52 173.29 -18.53 168.41 -15.21 163.63 C-13.26 160.61 -11.76 157.41 -10.2 154.19 C-8.31 150.44 -6.17 146.85 -4.04 143.24 C-1.23 138.48 1.51 133.68 4.25 128.88 C5 127.56 5 127.56 5.77 126.21 C8.14 122.08 10.48 117.93 12.79 113.77 C14.61 110.47 16.49 107.22 18.44 104 C18.95 103.15 19.46 102.31 19.99 101.43 C20.36 100.82 20.74 100.2 21.12 99.56 C17.83 97.6 15.33 97.31 11.52 97.28 C10.38 97.27 9.24 97.26 8.06 97.25 C6.19 97.25 6.19 97.25 4.28 97.24 C2.96 97.23 1.64 97.22 0.29 97.21 C-3.32 97.19 -6.93 97.17 -10.54 97.16 C-14.31 97.14 -18.09 97.12 -21.86 97.09 C-29 97.04 -36.15 97.01 -43.29 96.97 C-51.42 96.93 -59.56 96.89 -67.69 96.84 C-84.42 96.73 -101.15 96.64 -117.88 96.56 C-118.18 97.34 -118.48 98.12 -118.79 98.93 C-119.86 101.51 -121.09 103.53 -122.69 105.81 C-124.67 108.71 -126.48 111.59 -128.12 114.69 C-132.22 122.23 -137.25 129.22 -142.06 136.31 C-143.15 137.92 -144.23 139.52 -145.31 141.12 C-145.93 142.03 -146.55 142.94 -147.18 143.88 C-148.95 146.59 -148.95 146.59 -150.45 149.72 C-151.86 152.53 -153.58 154.6 -155.63 156.95 C-156.94 158.64 -157.78 160.27 -158.67 162.2 C-160.97 166.91 -163.8 171.17 -166.75 175.5 C-167.25 176.25 -167.76 176.99 -168.28 177.76 C-170.36 180.84 -172.44 183.92 -174.53 186.99 C-175.06 187.78 -175.59 188.57 -176.14 189.38 C-176.86 190.44 -176.86 190.44 -177.59 191.53 C-178.82 193.47 -179.84 195.42 -180.81 197.5 C-182.76 201.57 -185.27 205.09 -187.9 208.75 C-190.49 212.44 -192.9 216.23 -195.32 220.03 C-197.75 223.84 -200.23 227.59 -202.77 231.33 C-206.66 237.09 -210.22 242.87 -213.46 249.03 C-215.39 252.49 -217.66 255.64 -219.97 258.85 C-222.54 262.5 -224.92 266.26 -227.32 270.03 C-229.35 273.21 -231.41 276.38 -233.53 279.51 C-233.97 280.17 -234.42 280.82 -234.87 281.5 C-235.72 282.75 -236.57 283.99 -237.43 285.24 C-239.94 288.95 -242 292.73 -243.96 296.76 C-245.1 299 -246.45 300.98 -247.94 303 C-251.72 308.27 -255.23 313.7 -258.74 319.16 C-262.12 324.42 -265.58 329.61 -269.12 334.75 C-270.49 336.95 -271.63 339.04 -272.74 341.36 C-274.97 345.91 -277.71 350.01 -280.56 354.19 C-281.63 355.77 -282.7 357.35 -283.77 358.93 C-284.55 360.1 -284.55 360.1 -285.36 361.29 C-287.56 364.58 -289.69 367.91 -291.81 371.25 C-293.98 374.65 -296.15 378.02 -298.56 381.25 C-300.47 383.84 -301.95 386.53 -303.44 389.38 C-306.65 395.41 -310.43 400.98 -314.26 406.63 C-318.06 412.26 -321.63 417.99 -325.02 423.88 C-327.59 428.29 -327.59 428.29 -329.32 429.94 C-331.24 431.95 -332.3 434.02 -333.56 436.5 C-336.94 442.82 -340.84 448.7 -344.88 454.62 C-349.25 461.08 -353.53 467.53 -357.49 474.25 C-359.62 477.81 -361.86 481.28 -364.12 484.75 C-364.59 485.47 -365.06 486.19 -365.54 486.94 C-370.84 495.08 -376.2 503.2 -381.69 511.21 C-383.98 514.57 -386.07 517.83 -387.81 521.5 C-390.24 526.58 -393.56 531.03 -396.88 535.56 C-397.4 536.32 -397.92 537.08 -398.46 537.86 C-398.93 538.42 -399.4 538.98 -399.88 539.56 C-400.53 539.56 -401.19 539.56 -401.88 539.56 C-408.19 528.89 -413.48 518.17 -418 506.62 C-418.3 505.87 -418.6 505.12 -418.91 504.34 C-424.19 490.98 -428.53 477.54 -431.88 463.56 C-432.09 462.67 -432.31 461.77 -432.54 460.85 C-435.89 446.98 -435.89 446.98 -435.85 442.95 C-435.75 440.48 -435.75 440.48 -436.78 437.96 C-438.35 433.1 -438.84 428.19 -439.44 423.12 C-439.63 421.64 -439.63 421.64 -439.82 420.12 C-441.52 406.16 -442.08 392.24 -442.06 378.19 C-442.06 377.4 -442.06 376.62 -442.06 375.81 C-442.02 361.98 -441.52 348.31 -439.88 334.56 C-439.73 333.34 -439.58 332.12 -439.43 330.86 C-433.89 286.24 -420.88 242.4 -399.91 202.54 C-398.76 200.35 -397.64 198.14 -396.51 195.93 C-391.14 185.47 -385.35 175.39 -378.88 165.56 C-378.49 164.98 -378.1 164.39 -377.71 163.79 C-373.17 156.96 -368.3 150.5 -363.04 144.22 C-360.97 141.68 -359.11 139.07 -357.25 136.38 C-351.54 128.44 -344.68 121.55 -337.88 114.56 C-337.13 113.79 -336.38 113.02 -335.61 112.23 C-327.08 103.49 -318.6 94.98 -308.88 87.56 C-308.07 86.92 -307.27 86.28 -306.45 85.62 C-244.68 36.22 -172.19 3.46 -92.88 -3.44 C-92.08 -3.51 -91.28 -3.58 -90.46 -3.65 C-60.33 -6.15 -29.79 -4.87 0 0 Z " fill="#FA6F1A" transform="translate(707.875,26.4375)"/>
<path d="M0 0 C24.14 22 29.77 66.6 34 97 C34.29 99 34.58 101 34.87 103 C35.14 104.91 35.42 106.83 35.69 108.75 C35.81 109.59 35.93 110.44 36.05 111.31 C37.77 123.99 38.2 136.6 38.19 149.38 C38.19 150.16 38.19 150.95 38.19 151.76 C38.17 167.97 37.28 183.9 34.53 199.89 C34 202.98 33.51 206.08 33.03 209.17 C28.7 235.73 22.44 264.8 10.05 288.86 C8.9 291.21 7.88 293.59 6.88 296 C1.3 309.42 -5.19 321.98 -12.55 334.5 C-13.92 336.86 -15.24 339.25 -16.55 341.64 C-18.97 346.03 -21.64 350.21 -24.44 354.38 C-24.95 355.13 -25.45 355.89 -25.98 356.68 C-32.71 366.65 -39.76 376.48 -47.3 385.87 C-49.11 388.03 -49.11 388.03 -50.62 390.81 C-51.31 391.9 -51.31 391.9 -52 393 C-52.66 393 -53.32 393 -54 393 C-54.26 393.55 -54.51 394.11 -54.78 394.68 C-58.83 402.38 -64.75 409.07 -70.63 415.42 C-72.49 417.45 -74.29 419.5 -76.08 421.59 C-80.41 426.56 -85.05 431.23 -89.71 435.89 C-91.2 437.39 -92.69 438.89 -94.17 440.39 C-95.13 441.35 -96.08 442.31 -97.04 443.27 C-97.9 444.13 -98.76 444.99 -99.64 445.88 C-101.75 447.78 -103.46 448.83 -106 450 C-106.74 450.74 -107.49 451.49 -108.25 452.25 C-122.47 466.47 -142.19 476.15 -160 485 C-161.19 485.6 -161.19 485.6 -162.4 486.22 C-174.43 492.31 -186.74 496.92 -199.53 501.16 C-201.7 501.9 -203.83 502.69 -205.96 503.52 C-244.44 518.13 -287.74 522.19 -328.55 522.19 C-332.2 522.19 -335.85 522.21 -339.49 522.22 C-361.62 522.28 -383.53 521 -405.38 517.44 C-406.16 517.31 -406.95 517.19 -407.76 517.06 C-434.31 512.75 -460.02 506.21 -485.01 496.19 C-488.25 494.9 -491.5 493.67 -494.77 492.44 C-499.59 490.59 -504.23 488.58 -508.81 486.19 C-510.17 485.49 -511.52 484.8 -512.88 484.11 C-513.56 483.76 -514.24 483.41 -514.93 483.05 C-517 482 -519.07 480.97 -521.15 479.95 C-529.31 475.95 -537.21 471.69 -545 467 C-545.86 466.5 -546.72 465.99 -547.61 465.48 C-556.75 460.11 -565.19 453.91 -573.62 447.5 C-574.33 446.97 -575.03 446.43 -575.76 445.88 C-580.68 442.11 -585.38 438.14 -590 434 C-586.46 418.75 -575.46 404.65 -567.34 391.44 C-563.51 385.22 -559.75 378.95 -556 372.69 C-555.38 371.65 -554.76 370.61 -554.12 369.54 C-552.94 367.58 -551.76 365.61 -550.58 363.65 C-548.43 360.05 -546.28 356.46 -544.12 352.88 C-543.42 351.71 -542.72 350.54 -542.02 349.37 C-540.66 347.09 -539.29 344.81 -537.91 342.54 C-534.55 336.95 -531.2 331.35 -527.89 325.73 C-522.53 316.6 -517.12 307.52 -511.47 298.57 C-508.08 293.19 -504.92 287.7 -501.79 282.16 C-499.82 278.68 -497.77 275.24 -495.7 271.81 C-493.76 268.6 -491.82 265.38 -489.89 262.16 C-489.5 261.5 -489.1 260.85 -488.7 260.18 C-486.29 256.17 -483.9 252.15 -481.51 248.12 C-479.98 245.54 -478.44 242.96 -476.91 240.38 C-476.13 239.07 -475.35 237.76 -474.57 236.45 C-473.42 234.5 -472.27 232.56 -471.11 230.62 C-470.44 229.49 -469.77 228.36 -469.08 227.2 C-466.89 223.83 -464.75 220.93 -462 218 C-461.01 218 -460.02 218 -459 218 C-457.12 226.51 -456.01 235.06 -454.94 243.71 C-454.4 248.06 -453.85 252.42 -453.3 256.77 C-453.19 257.64 -453.08 258.51 -452.96 259.41 C-451.82 268.48 -450.6 277.53 -449.38 286.58 C-448.61 292.33 -447.86 298.08 -447.16 303.83 C-447.02 304.92 -446.89 306 -446.75 307.12 C-446.51 309.12 -446.27 311.12 -446.04 313.12 C-445.88 314.46 -445.88 314.46 -445.71 315.83 C-445.58 316.97 -445.58 316.97 -445.44 318.14 C-445.05 320.65 -444.57 323.1 -444.05 325.59 C-443.06 330.51 -442.35 335.42 -441.76 340.4 C-441.66 341.28 -441.55 342.16 -441.44 343.06 C-441.09 345.93 -440.74 348.8 -440.4 351.66 C-440.16 353.67 -439.91 355.67 -439.67 357.67 C-439.03 362.92 -438.4 368.16 -437.76 373.41 C-437.12 378.77 -436.46 384.13 -435.81 389.5 C-434.54 400 -433.27 410.5 -432 421 C-430.88 420.37 -429.77 419.74 -428.62 419.09 C-427.68 418.56 -427.68 418.56 -426.72 418.02 C-424.83 416.9 -423.27 415.67 -421.68 414.16 C-421.15 413.65 -420.61 413.15 -420.06 412.63 C-419.52 412.11 -418.99 411.59 -418.44 411.06 C-417.35 410.03 -416.27 409 -415.18 407.97 C-414.66 407.47 -414.13 406.97 -413.59 406.46 C-412.03 405.03 -410.43 403.69 -408.8 402.36 C-406.48 400.41 -404.68 398.6 -402.81 396.25 C-399.19 391.98 -395.01 388.7 -390.63 385.23 C-387.63 382.69 -385.24 379.92 -382.74 376.9 C-380.19 374.12 -377.21 372.02 -374.18 369.78 C-372.02 368.02 -370.34 366.21 -368.56 364.06 C-366.09 361.1 -363.57 358.77 -360.5 356.44 C-355 352.2 -350.25 347.36 -345.4 342.43 C-341.73 338.71 -338.01 335.17 -334.02 331.8 C-330.67 328.82 -327.57 325.59 -324.42 322.4 C-321.09 319.05 -317.66 315.9 -314.06 312.84 C-311.44 310.5 -308.97 308 -306.5 305.5 C-303.45 302.41 -300.38 299.38 -297.06 296.56 C-293.52 293.55 -290.27 290.31 -287 287 C-283.15 283.1 -279.24 279.39 -275.06 275.84 C-271.93 273.04 -269.02 270.04 -266.07 267.05 C-262.81 263.76 -259.42 260.69 -255.89 257.68 C-253.22 255.31 -250.73 252.76 -248.25 250.19 C-246.31 248.3 -244.34 246.54 -242.29 244.77 C-239.35 242.21 -236.49 239.59 -233.68 236.89 C-232.96 236.2 -232.24 235.51 -231.5 234.79 C-230.03 233.37 -228.56 231.95 -227.09 230.52 C-226.38 229.84 -225.66 229.15 -224.93 228.45 C-224.29 227.83 -223.66 227.22 -223 226.58 C-220.78 224.82 -218.67 223.93 -216 223 C-221.41 247.77 -228.73 272.15 -235.55 296.56 C-235.95 297.98 -236.34 299.4 -236.74 300.82 C-236.93 301.51 -237.12 302.19 -237.32 302.9 C-238.45 306.96 -239.53 311.03 -240.6 315.1 C-241.91 320.13 -243.28 325.01 -245.2 329.83 C-247.23 335.34 -248.7 341.05 -250.31 346.69 C-250.72 348.09 -251.12 349.48 -251.52 350.88 C-252.32 353.65 -253.12 356.43 -253.91 359.2 C-254.83 362.41 -255.75 365.62 -256.68 368.82 C-258.71 375.92 -260.73 383.02 -262.71 390.14 C-263.01 391.19 -263.3 392.25 -263.6 393.34 C-264.2 395.47 -264.79 397.6 -265.38 399.73 C-267.55 407.49 -269.83 415.21 -272.22 422.9 C-273.18 426.03 -274 428.7 -274 432 C-267.81 433.4 -261.57 433.37 -255.25 433.55 C-254.56 433.58 -253.87 433.6 -253.15 433.62 C-235.87 434.13 -218.59 434.15 -201.3 434.13 C-196.86 434.12 -192.43 434.13 -187.99 434.13 C-169.3 434.15 -150.67 434.04 -132 433 C-131.87 432.33 -131.74 431.66 -131.61 430.97 C-131.43 430.08 -131.26 429.19 -131.08 428.28 C-130.91 427.4 -130.74 426.53 -130.56 425.62 C-129.72 421.68 -128.51 417.89 -127.25 414.06 C-126.71 412.39 -126.18 410.73 -125.64 409.06 C-125.09 407.37 -124.55 405.69 -124 404 C-122.99 400.88 -121.99 397.75 -121 394.62 C-120.75 393.84 -120.5 393.06 -120.24 392.25 C-118.45 386.55 -116.8 380.82 -115.19 375.06 C-112.88 366.85 -110.33 358.73 -107.69 350.62 C-103.94 339.12 -100.48 327.56 -97.18 315.92 C-94.69 307.19 -91.91 298.6 -89 290 C-87.98 286.9 -86.98 283.8 -86 280.69 C-85.63 279.51 -85.63 279.51 -85.24 278.3 C-83.26 271.98 -81.49 265.61 -79.75 259.21 C-78.42 254.34 -76.82 249.65 -75.02 244.94 C-73.71 241.17 -72.67 237.35 -71.62 233.5 C-69.22 224.61 -66.48 215.86 -63.67 207.09 C-59.04 192.59 -54.72 177.99 -50.31 163.42 C-46.7 151.52 -43.03 139.64 -39.34 127.76 C-36.75 119.43 -34.19 111.09 -31.67 102.75 C-29.68 96.2 -27.65 89.67 -25.61 83.14 C-22.25 72.38 -18.99 61.62 -15.96 50.77 C-14.53 45.7 -12.88 40.77 -10.99 35.85 C-9.4 31.28 -8.2 26.6 -6.94 21.93 C-4.91 14.52 -2.52 7.26 0 0 Z " fill="#FB701B" transform="translate(992,254)"/>
<path d="M0 0 C87.62 0 87.62 0 98 5.38 C98.67 5.72 99.34 6.07 100.04 6.42 C116.12 15.21 125.13 31.1 131 48 C135.58 67.16 133.53 92.45 124.01 109.84 C118.49 118.52 112.13 124.31 103 129 C103.6 134.15 105.2 138.33 107.31 143 C107.83 144.16 107.83 144.16 108.36 145.34 C112.63 154.65 117.63 163.57 122.62 172.52 C124.53 175.95 126.39 179.41 128.25 182.88 C129.06 184.39 129.06 184.39 129.89 185.93 C130.26 186.61 130.62 187.3 131 188 C133.12 184.82 134.32 181.67 135.58 178.1 C135.83 177.4 136.08 176.7 136.34 175.99 C137.17 173.68 137.99 171.37 138.81 169.06 C139.39 167.44 139.97 165.82 140.55 164.21 C141.76 160.83 142.97 157.46 144.18 154.08 C146.75 146.91 149.34 139.75 151.93 132.59 C153.29 128.83 154.64 125.07 156 121.31 C156.26 120.6 156.52 119.88 156.78 119.14 C159.11 112.7 161.43 106.26 163.75 99.81 C164.11 98.82 164.46 97.83 164.83 96.81 C166.62 91.83 168.41 86.85 170.2 81.86 C174.41 70.12 178.69 58.4 183.04 46.7 C185.47 40.17 187.87 33.62 190.23 27.06 C190.5 26.31 190.78 25.55 191.06 24.78 C192.4 21.06 193.73 17.34 195.07 13.62 C195.55 12.27 196.04 10.92 196.53 9.56 C196.96 8.37 197.39 7.17 197.83 5.94 C199 3 199 3 201 0 C203.06 -0.36 203.06 -0.36 205.63 -0.34 C207.07 -0.34 207.07 -0.34 208.54 -0.34 C209.58 -0.32 210.62 -0.31 211.7 -0.29 C212.76 -0.29 213.82 -0.28 214.92 -0.28 C218.32 -0.26 221.72 -0.23 225.12 -0.19 C227.43 -0.17 229.73 -0.16 232.04 -0.15 C237.69 -0.11 243.35 -0.06 249 0 C249.93 2.61 250.86 5.21 251.79 7.82 C252.66 10.24 253.52 12.67 254.39 15.09 C256.84 21.95 259.29 28.81 261.74 35.67 C273.46 68.52 273.46 68.52 285.29 101.32 C290.82 116.57 296.34 131.81 301.6 147.15 C303.76 153.45 305.97 159.74 308.22 166.02 C308.78 167.58 309.34 169.15 309.9 170.71 C310.72 173.03 311.55 175.35 312.39 177.66 C313.16 179.8 313.93 181.94 314.69 184.09 C315.14 185.32 315.58 186.56 316.04 187.84 C317 191 317 191 317 195 C301.49 195 285.98 195 270 195 C266.41 187.82 262.87 180.71 259.62 173.38 C259.27 172.59 258.92 171.8 258.55 170.99 C258.22 170.24 257.88 169.49 257.54 168.71 C257.24 168.04 256.95 167.38 256.64 166.69 C256 165 256 165 256 163 C234.55 163.33 213.1 163.66 191 164 C187.04 173.9 183.08 183.8 179 194 C176.86 196.14 171.96 195.22 168.99 195.26 C167.57 195.28 167.57 195.28 166.12 195.3 C157.38 195.43 148.64 195.5 139.9 195.55 C134.02 195.58 128.14 195.64 122.27 195.73 C116.59 195.83 110.92 195.88 105.24 195.89 C103.08 195.91 100.92 195.94 98.75 195.98 C95.72 196.04 92.69 196.05 89.66 196.04 C88.77 196.07 87.87 196.1 86.95 196.13 C84.35 196.09 82.43 195.94 80 195 C77.4 192.29 75.71 189.32 74 186 C73.18 184.57 72.36 183.14 71.54 181.71 C70.75 180.27 69.97 178.82 69.19 177.38 C65.93 171.44 62.61 165.55 59.12 159.75 C58.77 159.15 58.41 158.56 58.04 157.95 C55.79 154.23 53.43 150.6 51 147 C50.07 149.79 49.85 151.58 49.79 154.47 C49.77 155.38 49.75 156.3 49.73 157.24 C49.72 158.2 49.7 159.15 49.68 160.14 C49.66 161.02 49.65 161.9 49.63 162.81 C49.56 166.1 49.5 169.39 49.44 172.69 C49.29 180.05 49.15 187.41 49 195 C32.83 195 16.66 195 0 195 C0 130.65 0 66.3 0 0 Z M48 44 C48 61.82 48 79.64 48 98 C68.69 98.44 68.69 98.44 85.54 88.52 C90.45 82.95 91.41 77.99 91.25 70.78 C90.6 63.46 87.4 57.94 82 53 C77.78 49.84 74.03 48.15 68.94 46.81 C67.75 46.49 66.56 46.17 65.34 45.83 C59.63 44.74 53.79 44.45 48 44 Z M223 62 C220.78 68.39 218.55 74.77 216.33 81.16 C215.57 83.33 214.82 85.5 214.06 87.67 C212.97 90.8 211.88 93.93 210.79 97.06 C210.29 98.5 210.29 98.5 209.78 99.97 C209.3 101.35 209.3 101.35 208.81 102.76 C208.53 103.55 208.25 104.35 207.97 105.17 C206.62 109.11 205.32 113.05 204 117 C216.54 117 229.08 117 242 117 C238.46 97.52 231.64 80.14 224 62 C223.67 62 223.34 62 223 62 Z " fill="#000000" transform="translate(467,856)"/>
<path d="M0 0 C12.31 0.43 12.31 0.43 24.88 0.88 C25.21 28.92 25.53 56.98 25.88 85.88 C32.23 77.21 38.49 68.66 44.37 59.69 C46.95 55.76 49.56 51.84 52.17 47.93 C53.07 46.58 53.97 45.23 54.87 43.88 C56.75 41.06 58.63 38.24 60.51 35.42 C64.8 28.98 69.1 22.54 73.38 16.1 C74.03 15.12 74.69 14.14 75.36 13.13 C76.55 11.34 77.74 9.54 78.93 7.75 C79.44 6.98 79.96 6.2 80.49 5.41 C80.93 4.74 81.37 4.08 81.83 3.39 C82.88 1.88 82.88 1.88 83.88 0.88 C99.38 0.88 114.89 0.88 130.88 0.88 C130.88 65.23 130.88 129.58 130.88 195.88 C114.05 195.88 97.21 195.88 79.88 195.88 C77.76 193.76 78.69 189.05 78.67 186.13 C78.66 185.22 78.65 184.3 78.64 183.35 C78.61 180.31 78.58 177.26 78.56 174.21 C78.54 172.11 78.52 170 78.5 167.9 C78.44 162.34 78.39 156.79 78.34 151.23 C78.29 145.57 78.24 139.9 78.18 134.24 C78.07 123.12 77.97 112 77.88 100.88 C77.4 101.63 76.92 102.38 76.42 103.16 C75.48 104.65 75.48 104.65 74.52 106.16 C73.89 107.14 73.27 108.12 72.63 109.13 C70.63 112.26 68.58 115.35 66.5 118.44 C58.85 129.85 51.37 141.37 43.88 152.88 C43.33 153.71 42.79 154.54 42.23 155.4 C36.41 164.34 30.67 173.32 25.02 182.37 C24.55 183.12 24.08 183.86 23.6 184.63 C23.2 185.28 22.79 185.94 22.37 186.61 C21.88 187.35 21.38 188.1 20.88 188.88 C20.58 189.47 20.29 190.06 19.99 190.67 C18.79 192.82 17.76 194.28 15.88 195.88 C12.06 196.85 8.36 196.69 4.45 196.56 C3.35 196.55 2.24 196.54 1.11 196.53 C-2.41 196.49 -5.92 196.4 -9.44 196.31 C-11.82 196.28 -14.21 196.25 -16.6 196.22 C-22.44 196.14 -28.28 196.02 -34.12 195.88 C-34.14 194.45 -34.14 194.45 -34.16 193 C-34.25 184.01 -34.36 175.03 -34.46 166.04 C-34.52 161.42 -34.57 156.8 -34.62 152.18 C-34.67 147.71 -34.72 143.25 -34.78 138.78 C-34.8 137.08 -34.82 135.39 -34.83 133.69 C-34.93 124.04 -35.22 114.49 -36.12 104.88 C-37.34 106.7 -38.56 108.53 -39.78 110.36 C-40.86 111.98 -41.94 113.6 -43.02 115.22 C-45.71 119.25 -48.39 123.27 -51.07 127.3 C-56.41 135.34 -61.8 143.35 -67.25 151.31 C-75.36 163.16 -83.31 175.11 -91.26 187.06 C-91.87 187.99 -92.49 188.92 -93.12 189.88 C-93.57 190.97 -94.02 192.07 -94.48 193.2 C-97.72 196.48 -98.85 196.34 -103.36 196.56 C-106.01 196.56 -108.65 196.52 -111.3 196.46 C-112.7 196.45 -114.11 196.44 -115.52 196.44 C-119.21 196.41 -122.91 196.35 -126.6 196.29 C-130.38 196.23 -134.15 196.2 -137.93 196.17 C-145.33 196.1 -152.73 196 -160.12 195.88 C-159.35 194.29 -158.58 192.71 -157.8 191.14 C-157.37 190.26 -156.93 189.38 -156.49 188.47 C-154.47 184.62 -152.01 181.18 -149.44 177.69 C-148.37 176.21 -147.31 174.73 -146.25 173.25 C-145.72 172.52 -145.19 171.79 -144.65 171.03 C-142.36 167.8 -140.18 164.5 -138 161.19 C-134.43 155.77 -130.73 150.47 -126.94 145.21 C-121.89 138.18 -117.01 131.02 -112.12 123.88 C-106.5 115.65 -100.85 107.45 -95.03 99.37 C-91.54 94.51 -88.17 89.57 -84.81 84.62 C-79.95 77.47 -74.96 70.43 -69.87 63.44 C-65.84 57.91 -61.94 52.3 -58.08 46.64 C-55.09 42.26 -52.04 37.93 -48.94 33.62 C-45.92 29.43 -42.98 25.19 -40.12 20.88 C-39.19 19.53 -39.19 19.53 -38.23 18.15 C-36.04 14.91 -36.04 14.91 -34.47 11.26 C-27.26 -3.25 -14.37 -0.71 0 0 Z " fill="#000000" transform="translate(175.125,854.125)"/>
<path d="M0 0 C4.27 3.75 8.09 7.62 11.57 12.12 C12.39 13.13 12.39 13.13 13.22 14.17 C30.63 37.11 36.35 66.8 32.61 94.96 C29.65 114.54 21.34 134.65 7.57 149.12 C6.71 150.04 5.86 150.96 4.98 151.91 C-12.31 170.12 -36.1 180.74 -61.23 181.41 C-86.05 181.68 -108.83 173.72 -127.43 157.12 C-128.28 156.37 -129.12 155.62 -130 154.85 C-147.89 138.01 -159.42 112.04 -160.56 87.48 C-160.9 74.72 -160.98 62.46 -157.43 50.12 C-157.23 49.42 -157.04 48.72 -156.83 48 C-149.16 21.48 -133.86 0.39 -109.59 -13.51 C-73.8 -32.3 -30.22 -25.9 0 0 Z M-104.68 37.25 C-114.21 48.65 -120.45 65.07 -119.81 79.97 C-117.51 99.26 -109.13 116.12 -93.74 128.24 C-82.47 135.87 -69.27 140.89 -55.6 138.66 C-43.02 135.86 -33.44 130.27 -24.43 121.12 C-23.87 120.56 -23.31 119.99 -22.73 119.41 C-10.52 106.2 -6.44 89.84 -7.12 72.31 C-8.19 55.27 -16.9 41.3 -29.43 30.12 C-32.62 27.7 -35.81 25.82 -39.43 24.12 C-40.24 23.74 -41.05 23.35 -41.89 22.95 C-64.37 13.14 -87.93 19.92 -104.68 37.25 Z " fill="#000000" transform="translate(1242.4326171875,877.87939453125)"/>
<path d="M0 0 C1.18 0 1.18 0 2.39 0 C3.29 0 4.19 0 5.12 -0 C6.62 0 6.62 0 8.14 0.01 C9.19 0.01 10.23 0.01 11.3 0.01 C14.77 0.01 18.24 0.02 21.71 0.03 C24.11 0.03 26.5 0.03 28.9 0.03 C35.23 0.03 41.55 0.04 47.88 0.05 C54.32 0.06 60.77 0.07 67.22 0.07 C79.88 0.08 92.54 0.1 105.21 0.12 C105.23 6.23 105.25 12.33 105.26 18.44 C105.27 20.52 105.27 22.6 105.28 24.68 C105.29 27.66 105.3 30.64 105.3 33.62 C105.31 34.55 105.31 35.49 105.32 36.45 C105.32 37.31 105.32 38.18 105.32 39.06 C105.32 39.82 105.32 40.59 105.33 41.37 C105.21 43.12 105.21 43.12 104.21 44.12 C99.76 44.53 95.29 44.6 90.83 44.75 C90.17 44.77 89.5 44.79 88.82 44.82 C74.9 45.28 61.12 44.8 47.21 44.12 C46.88 53.36 46.55 62.6 46.21 72.12 C65.35 72.12 84.49 72.12 104.21 72.12 C105.04 76.28 105.33 79.6 105.34 83.79 C105.34 85.07 105.34 86.36 105.34 87.69 C105.34 88.36 105.34 89.03 105.34 89.71 C105.33 91.72 105.34 93.73 105.34 95.74 C105.34 97.03 105.34 98.33 105.34 99.66 C105.34 100.83 105.34 102 105.34 103.2 C105.17 108.19 104.66 113.15 104.21 118.12 C75.5 118.62 75.5 118.62 46.21 119.12 C46.21 129.35 46.21 139.58 46.21 150.12 C50.38 150.11 54.56 150.1 58.86 150.09 C62.18 150.08 65.5 150.08 68.82 150.07 C72.33 150.07 75.84 150.06 79.35 150.05 C83.37 150.03 87.4 150.03 91.42 150.03 C92.68 150.02 93.95 150.02 95.25 150.01 C96.41 150.01 97.57 150.01 98.77 150.01 C100.31 150.01 100.31 150.01 101.88 150 C104.21 150.12 104.21 150.12 105.21 151.12 C105.3 152.47 105.33 153.82 105.34 155.17 C105.34 156.03 105.34 156.88 105.34 157.77 C105.34 159.17 105.34 159.17 105.34 160.59 C105.34 161.54 105.34 162.49 105.34 163.47 C105.34 165.49 105.34 167.5 105.34 169.52 C105.33 172.61 105.34 175.7 105.34 178.8 C105.34 180.75 105.34 182.7 105.34 184.65 C105.34 185.59 105.34 186.52 105.34 187.48 C105.34 188.77 105.34 188.77 105.34 190.08 C105.33 190.84 105.33 191.6 105.33 192.38 C105.21 194.12 105.21 194.12 104.21 195.12 C102.83 195.22 101.45 195.25 100.07 195.25 C99.18 195.25 98.28 195.26 97.37 195.26 C96.38 195.26 95.39 195.25 94.38 195.25 C93.35 195.25 92.31 195.26 91.25 195.26 C87.82 195.26 84.39 195.26 80.96 195.26 C78.58 195.26 76.21 195.26 73.84 195.26 C68.86 195.26 63.88 195.26 58.9 195.25 C52.5 195.25 46.1 195.25 39.7 195.26 C34.8 195.26 29.89 195.26 24.99 195.26 C22.63 195.26 20.27 195.26 17.91 195.26 C14.62 195.26 11.33 195.26 8.03 195.25 C7.05 195.25 6.06 195.26 5.05 195.26 C4.15 195.26 3.26 195.25 2.34 195.25 C1.56 195.25 0.78 195.25 -0.02 195.25 C-1.79 195.12 -1.79 195.12 -2.79 194.12 C-2.89 191.63 -2.93 189.17 -2.92 186.68 C-2.92 185.89 -2.92 185.11 -2.93 184.29 C-2.93 181.63 -2.93 178.97 -2.92 176.31 C-2.92 174.41 -2.93 172.51 -2.93 170.61 C-2.93 165.43 -2.93 160.26 -2.93 155.08 C-2.93 149.68 -2.93 144.28 -2.93 138.87 C-2.93 129.8 -2.93 120.72 -2.92 111.64 C-2.92 101.13 -2.92 90.63 -2.93 80.12 C-2.93 71.11 -2.93 62.11 -2.93 53.1 C-2.93 47.71 -2.93 42.33 -2.93 36.94 C-2.93 31.88 -2.93 26.82 -2.93 21.75 C-2.92 19.89 -2.92 18.03 -2.93 16.16 C-2.93 13.63 -2.93 11.1 -2.92 8.56 C-2.92 7.82 -2.93 7.07 -2.93 6.3 C-2.9 0.2 -2.9 0.2 0 0 Z " fill="#000000" transform="translate(335.7941064834595,855.8769521713257)"/>
<path d="M0 0 C15.77 12.03 30.48 29.99 35.09 49.64 C29.12 49.98 23.14 50.27 17.16 50.51 C15.13 50.59 13.1 50.69 11.07 50.8 C8.14 50.95 5.21 51.05 2.28 51.14 C1.38 51.19 0.48 51.25 -0.45 51.3 C-5.62 51.41 -8.39 50.73 -12.35 47.29 C-13.56 46.1 -14.74 44.88 -15.91 43.64 C-26.56 33.24 -39.9 28.23 -54.63 28.2 C-65.47 28.52 -75.55 32.82 -83.91 39.64 C-84.66 40.24 -85.4 40.84 -86.17 41.46 C-97.76 51.82 -104.22 68.8 -105.28 84.05 C-106 101.51 -101.04 117.51 -89.66 131.01 C-80.73 140.35 -68.55 146.95 -55.56 147.88 C-41.85 148.15 -29.64 144.77 -19.36 135.29 C-17.79 133.71 -16.24 132.11 -14.72 130.49 C-12.8 128.53 -11.8 127.7 -9.05 127.51 C-7.92 127.51 -7.92 127.51 -6.77 127.51 C-5.91 127.51 -5.06 127.5 -4.18 127.5 C-3.25 127.5 -2.33 127.5 -1.38 127.51 C-0.43 127.5 0.52 127.5 1.49 127.5 C3.5 127.5 5.5 127.5 7.5 127.51 C10.58 127.51 13.65 127.51 16.73 127.5 C18.67 127.5 20.62 127.5 22.56 127.51 C23.95 127.5 23.95 127.5 25.36 127.5 C26.22 127.5 27.07 127.51 27.95 127.51 C28.7 127.51 29.46 127.51 30.23 127.51 C32.09 127.64 32.09 127.64 34.09 128.64 C27.79 149.29 12.09 169.47 -6.91 179.64 C-18.65 185.44 -31.7 190.11 -44.91 190.64 C-45.92 190.69 -46.93 190.74 -47.97 190.79 C-71.45 191.43 -94.58 183.96 -111.8 167.7 C-112.49 167.02 -113.19 166.34 -113.91 165.64 C-114.79 164.79 -115.68 163.95 -116.6 163.08 C-117.74 161.87 -117.74 161.87 -118.91 160.64 C-119.43 160.1 -119.94 159.57 -120.48 159.02 C-138.8 139.26 -146.4 111.31 -146.11 84.84 C-144.99 55.65 -133.45 29.12 -112.39 8.91 C-83.48 -17.54 -32.88 -23.47 0 0 Z " fill="#000000" transform="translate(1036.90771484375,868.36181640625)"/>
<path d="M0 0 C16.17 0 32.34 0 49 0 C49 49.17 49 98.34 49 149 C61.54 149 74.08 149 87 149 C92.28 149.33 97.56 149.66 103 150 C103 164.85 103 179.7 103 195 C69.01 195 35.02 195 0 195 C0 130.65 0 66.3 0 0 Z " fill="#000000" transform="translate(789,856)"/>
</svg>
