<?xml version="1.0" encoding="UTF-8"?>
<svg version="1.1" viewBox="0 0 1280 1280" xmlns="http://www.w3.org/2000/svg">
<path transform="translate(616.17 141.83)" d="m0 0c0.71-0 1.43-0.01 2.16-0.01 1.51-0.01 3.03-0.01 4.54-0.01 2.29 0 4.59-0.02 6.88-0.04h4.42c0.68-0.01 1.36-0.02 2.06-0.02 4.58 0.02 8.44 0.82 12.77 2.25 0.7 0.22 1.39 0.45 2.11 0.68 7.74 2.75 14.99 5.53 21.88 10.12 1.95 1.29 1.95 1.29 4.16 1.72 2.93 0.76 4.02 3.15 5.85 5.48 1.15 0.67 1.15 0.67 2.33 1.36 3.01 1.84 5.07 3.95 7.48 6.51 4.13 4.24 8.13 7.13 13.19 10.13v2c0.56 0.25 1.12 0.49 1.69 0.75 5.92 3.2 10.59 8.09 14.75 13.31 2.39 3.01 2.39 3.01 5.4 4.81 3.19 2.15 5.64 4.42 8.31 7.19 0.96 0.97 1.91 1.94 2.86 2.91 1.47 1.52 2.93 3.03 4.39 4.55 5.19 5.36 9.95 10 16.6 13.48l1 3h2v2c0.58 0.26 1.16 0.53 1.76 0.8 6.29 3.36 11.09 8.99 15.65 14.34 2.72 3.18 5.31 6.12 8.96 8.22 2.83 1.76 4.86 3.69 7.18 6.09 0.84 0.87 1.69 1.74 2.56 2.63 1.75 1.81 3.49 3.62 5.24 5.43 4.71 4.81 9.24 8.89 15.04 12.34 0.53 0.38 1.07 0.76 1.61 1.15v2h2v2c0.84 0.34 0.84 0.34 1.69 0.69 3.67 2.08 6.25 5.18 9.13 8.24 3.89 4.03 7.59 7.11 12.43 9.92 2.48 1.63 4.01 3.78 5.75 6.15 0.66 0.49 1.32 0.99 2 1.5 2 1.5 2 1.5 3.69 3.69 4.2 5.1 9.2 10.1 15.31 12.81v2c0.59 0.25 1.17 0.51 1.77 0.77 2.46 1.35 3.99 2.82 5.91 4.85 0.68 0.71 1.37 1.42 2.07 2.14 1.41 1.49 2.83 2.98 4.23 4.47 3.85 3.97 6.53 6.39 12.02 7.77 1.63 2.44 1.63 2.44 3 5 1.32 1.02 2.65 2.02 4 3 0.96 1.2 0.96 1.2 1.94 2.44 2 2.67 2 2.67 4.81 4.75 0.74 0.59 1.49 1.19 2.25 1.81v2l5 1 1 3h2v2c0.84 0.34 0.84 0.34 1.69 0.69 2.99 1.69 4.93 3.82 7.31 6.31 1.31 1.36 2.62 2.71 3.94 4.06 0.63 0.65 1.26 1.3 1.9 1.97 2.17 2.08 2.17 2.08 4.99 3.78 4.51 3.11 8.04 6.99 11.79 10.97 3.66 3.78 7.27 6.61 11.88 9.18 0.5 0.34 0.99 0.68 1.5 1.04v2c0.84 0.34 0.84 0.34 1.69 0.69 2.99 1.69 4.93 3.82 7.31 6.31 1.31 1.36 2.62 2.71 3.94 4.06 0.63 0.65 1.26 1.3 1.9 1.97 2.17 2.08 2.17 2.08 4.99 3.78 4.51 3.11 8.04 6.99 11.79 10.97 3.66 3.78 7.27 6.61 11.88 9.18 0.5 0.34 0.99 0.68 1.5 1.04v2c0.55 0.21 1.1 0.43 1.67 0.65 3.65 2.1 6.27 5.28 9.09 8.36 3.21 3.36 5.82 4.71 10.24 5.99 1.06 1.63 2.05 3.31 3 5 4.3 4.95 8.79 8.83 14.53 11.99 0.49 0.33 0.97 0.67 1.47 1.01v2c0.84 0.34 0.84 0.34 1.69 0.69 2.94 1.67 4.92 3.92 7.31 6.31 1.1 0.7 2.19 1.4 3.31 2.12 0.89 0.62 1.78 1.24 2.69 1.88v3c0.6 0.11 1.2 0.21 1.82 0.33 2.46 0.75 3.39 1.56 5.14 3.43 0.53 0.56 1.06 1.12 1.61 1.7 0.56 0.59 1.11 1.18 1.68 1.79 4.61 4.79 8.95 8.45 14.75 11.75v2c0.84 0.34 0.84 0.34 1.69 0.69 3.52 2 6.05 4.91 8.75 7.9 2.58 2.75 4.09 4.25 7.75 5.47 3.69 1.23 3.92 2.59 5.81 5.94 4.3 4.95 8.79 8.83 14.53 11.99 0.49 0.33 0.97 0.67 1.47 1.01v2c0.79 0.25 1.57 0.49 2.38 0.75 3.03 1.44 3.29 2.3 4.62 5.25 0.99 0.33 1.98 0.66 3 1 1.18 1.15 2.36 2.3 3.5 3.49 2.3 2.31 4.78 4.41 7.25 6.54 3.34 2.92 6.6 5.94 9.86 8.95 2.36 2.1 2.36 2.1 5.19 3.66 0.73 0.45 1.45 0.9 2.2 1.36v2c0.59 0.08 1.18 0.17 1.79 0.26 2.82 0.94 3.76 2.23 5.59 4.55 2.9 3.48 5.72 5.82 9.62 8.19 3.63 2.68 6.22 5.47 9 9l3 2v2l5 1 1 3c1.31 0.71 2.65 1.38 4 2 1.26 0.94 2.49 1.92 3.69 2.94 0.9 0.75 0.9 0.75 1.82 1.52 1.49 1.54 1.49 1.54 2.49 4.54 1.39 0.09 1.39 0.09 2.81 0.19 4.14 1.05 4.06 2.23 6.19 5.81 2.49 2.68 5.2 5.14 7.88 7.62 1.45 1.39 2.79 2.88 4.12 4.38v4c0.99 0.33 1.98 0.66 3 1v4h2v5c0.99 0.33 1.98 0.66 3 1v7h2v29h-2c0.08 1.3 0.17 2.6 0.25 3.94 0.01 5.43-1.79 9.31-4.25 14.06-0.77 1.73-0.77 1.73-1.56 3.5-1.44 2.5-1.44 2.5-4.44 3.5-0.06 0.71-0.12 1.42-0.18 2.15-1.07 3.74-3.24 5.83-5.95 8.48l-1.57 1.57c-1.1 1.09-2.19 2.18-3.3 3.26-1.67 1.65-3.33 3.32-4.99 4.99l-3.21 3.18c-0.49 0.49-0.98 0.99-1.48 1.5-3.19 3.09-6.3 5.02-10.32 6.87-1.95 1.59-1.95 1.59-3.56 3.37-0.59 0.62-1.18 1.23-1.78 1.86-0.55 0.58-1.09 1.17-1.66 1.77-2.52 2.64-4.72 4.82-7.81 6.79-4.38 3.03-7.76 6.79-11.41 10.65-2.82 2.59-5.37 3.87-8.78 5.56-2.64 2.35-2.64 2.35-5.06 5-3.15 3.34-6.01 5.66-9.94 8-1.48 1.42-2.91 2.88-4.31 4.37-3.39 3.49-6.64 6.03-10.84 8.44-2.54 1.63-4.43 3.67-6.49 5.86-1.36 1.33-1.36 1.33-3.8 2.77-3.11 1.89-5.27 4.26-7.71 6.94-1.85 1.62-1.85 1.62-4.32 2.59-2.94 1.2-4.38 2.64-6.53 4.97-2.85 2.97-5.45 4.96-9 7.06-1.77 1.74-3.48 3.54-5.15 5.38-1.85 1.62-1.85 1.62-4.32 2.59-2.94 1.2-4.38 2.64-6.53 4.97-2.85 2.97-5.45 4.96-9 7.06-1.77 1.74-3.48 3.54-5.15 5.38-1.85 1.62-1.85 1.62-4.32 2.59-2.94 1.2-4.38 2.64-6.53 4.97-2.83 2.95-5.4 5.06-9 7.06-0.66 0.68-1.32 1.36-2 2.06-2 1.94-2 1.94-4.37 2.81-2.97 1.27-4.45 2.71-6.63 5.07-2.84 2.96-5.42 5.03-9 7.06-0.8 0.82-1.61 1.65-2.44 2.5-2.56 2.5-2.56 2.5-5.43 3.87-3.57 1.86-5.72 4.11-8.46 6.99-2.02 1.98-4.22 3.25-6.67 4.64-1.02 1.05-1.02 1.05-2.06 2.12-1.94 1.88-1.94 1.88-3.88 2.32-3.19 0.87-4.77 3.21-7.06 5.56-2.01 1.57-4.06 3.08-6.13 4.57-1.9 1.38-1.9 1.38-3.49 3.08-1.38 1.35-1.38 1.35-3.25 1.72-3.22 0.95-4.8 3.25-7.13 5.63-2.01 1.57-4.06 3.08-6.13 4.57-1.9 1.38-1.9 1.38-3.49 3.08-1.38 1.35-1.38 1.35-3.25 1.72-3.22 0.95-4.8 3.25-7.13 5.63-2.01 1.57-4.06 3.08-6.13 4.57-1.9 1.38-1.9 1.38-3.49 3.09-1.38 1.34-1.38 1.34-3.25 1.65-2.89 0.94-3.97 2.88-5.78 5.21-2.05 2.25-4.61 3.2-7.35 4.48-1.08 0.87-2.15 1.76-3.19 2.69-2.81 2.31-2.81 2.31-5.81 2.31-0.2 0.6-0.41 1.19-0.62 1.81-1.89 3-4.23 3.61-7.38 5.19-1.01 0.94-1.99 1.92-2.94 2.94-2.09 2.23-4.06 3.78-6.75 5.25-2.77 1.51-4.2 2.61-6.31 4.81-1.66 1.01-3.32 2.01-5 3l-2 2c-0.74 0.25-1.48 0.49-2.25 0.75-3.15 1.43-4.83 3.17-7.12 5.71-2.03 1.91-4.22 3.14-6.63 4.54-1.61 1.09-3.22 2.19-4.81 3.31-0.87 0.61-1.73 1.21-2.63 1.84-2.34 1.69-4.6 3.44-6.87 5.22-2.93 2.25-5.04 2.98-8.69 3.63-0.31 0.62-0.62 1.24-0.94 1.87-1.55 3.12-3.96 3.61-7.06 5.13-1.86 1.53-3.63 3.13-5.38 4.79-1.62 1.21-1.62 1.21-4.62 1.21-0.2 0.6-0.41 1.19-0.62 1.81-1.89 3-4.21 3.7-7.38 5.19-0.8 0.83-0.8 0.83-1.62 1.69-1.38 1.31-1.38 1.31-5.38 1.31-0.2 0.6-0.41 1.19-0.62 1.81-1.89 3-4.21 3.7-7.38 5.19-0.8 0.83-0.8 0.83-1.62 1.69-1.38 1.31-1.38 1.31-5.38 1.31-0.24 0.59-0.47 1.19-0.72 1.8-1.55 2.67-3.12 3.69-5.72 5.32-0.78 0.5-1.56 1-2.37 1.51-1.08 0.68-1.08 0.68-2.19 1.37l-3 2h-3c-0.2 0.6-0.41 1.19-0.62 1.81-1.89 3-4.21 3.7-7.38 5.19-0.8 0.83-0.8 0.83-1.62 1.69-1.38 1.31-1.38 1.31-5.38 1.31-0.2 0.6-0.41 1.19-0.62 1.81-1.89 3-4.21 3.7-7.38 5.19-0.8 0.83-0.8 0.83-1.62 1.69-1.38 1.31-1.38 1.31-5.38 1.31-0.2 0.6-0.41 1.19-0.62 1.81-1.89 3-4.21 3.7-7.38 5.19-0.8 0.83-0.8 0.83-1.62 1.69-1.38 1.31-1.38 1.31-5.38 1.31-0.2 0.6-0.41 1.19-0.62 1.81-1.9 3.02-4.18 3.72-7.38 5.19-0.72 0.55-1.44 1.11-2.19 1.69-1.81 1.31-1.81 1.31-4.81 1.31l-1 3c-1.65 0.69-3.32 1.36-5 2-0.77 0.8-0.77 0.8-1.56 1.62-1.44 1.38-1.44 1.38-5.44 1.38-0.2 0.6-0.41 1.19-0.62 1.81-1.89 3-4.21 3.7-7.38 5.19-0.8 0.83-0.8 0.83-1.62 1.69-1.38 1.31-1.38 1.31-5.38 1.31v2h-2v-2h-3v3l2 1c-3.44 2.29-4.72 3-9 3-0.25 0.61-0.5 1.23-0.76 1.86-2.06 3.57-5.47 4.75-9.24 6.14-3 0.25-3 0.25-5 0v2c-1.7 0.18-1.7 0.18-3.44 0.37-1.17 0.21-2.35 0.42-3.56 0.63l-1 2c-1.15-0.04-1.15-0.04-2.33-0.07-1.51-0.03-1.51-0.03-3.04-0.06-1.5-0.03-1.5-0.03-3.03-0.07-2.76-0.07-2.76-0.07-4.6 2.2-2.2 0.26-2.2 0.26-4.9 0.26-0.97 0.01-1.95 0.01-2.95 0.01-1.02-0.01-2.04-0.01-3.09-0.02-1.01 0.01-2.03 0.01-3.07 0.02-0.98 0-1.95 0-2.95-0.01h-2.71c-2.33-0.26-2.33-0.26-5.33-2.26-2.19-0.17-2.19-0.17-4.5 0-3.64 0.19-4.28 0.14-7.5-2-2.85-0.8-5.71-1.46-8.6-2.12-1.19-0.44-1.19-0.44-2.4-0.88l-1-3c-1.08-0.19-1.08-0.19-2.19-0.38-2.77-0.61-5.21-1.51-7.81-2.62v-2c-1.11-0.16-1.11-0.16-2.25-0.31-2.75-0.69-2.75-0.69-4.6-2.08-3.08-2.31-6.5-3.73-10-5.33-2.15-1.28-2.15-1.28-3.15-4.28-1.32-0.38-2.66-0.71-4-1-1.76-0.93-3.48-1.91-5.19-2.94-0.88-0.52-1.76-1.05-2.66-1.59-2.15-1.47-2.15-1.47-3.15-3.47-2.32-1.38-4.63-2.71-7-4-2.94-1.63-2.94-1.63-5-3v-2h-3c-1.33-1.34-2.66-2.67-4-4-2.63-1.26-2.63-1.26-5-2v-2h-3v-2h-3c-1.33-1.34-2.66-2.67-4-4-1.97-1.06-3.96-2.08-6-3v-3c-1.07-0.14-1.07-0.14-2.17-0.29-3.3-0.83-5.37-2.18-8.14-4.15-1.32-0.93-1.32-0.93-2.68-1.87-0.66-0.56-1.32-1.12-2.01-1.69v-2c-0.72-0.06-1.44-0.13-2.19-0.19-3.65-1.06-5.18-3.12-7.81-5.81-1.32-0.36-2.66-0.7-4-1-1.33-1.34-2.66-2.67-4-4-1.99-1.02-3.99-2.02-6-3l-1-2c-1.49-0.93-3.01-1.8-4.56-2.63-0.83-0.44-1.65-0.89-2.5-1.35-0.64-0.34-1.28-0.67-1.94-1.02v-2h-3v-2h-3c-1.35-1.31-2.68-2.65-4-4-1.07-0.7-2.14-1.4-3.25-2.13-0.91-0.62-1.81-1.23-2.75-1.87v-2c-0.72-0.08-1.44-0.17-2.19-0.25-3.4-0.91-5.26-2.35-7.81-4.75v-2c-0.72-0.06-1.44-0.13-2.19-0.19-3.69-1.07-5.34-2.92-7.81-5.81v-2c-1.11 0.12-1.11 0.12-2.25 0.25-3.62-0.33-4.33-1.61-6.75-4.25-1.03-0.66-2.06-1.32-3.12-2-2.88-2-2.88-2-3.94-4.19-0.46-0.9-0.46-0.9-0.94-1.81-1.65-0.38-3.32-0.72-5-1-1.02-0.98-2.02-1.98-3-3-1.65-0.93-3.3-1.85-4.95-2.75-3.27-2-6.17-4.44-9.13-6.86-1.79-1.59-1.79-1.59-3.92-1.39-0.22-0.81-0.45-1.61-0.69-2.44-0.43-0.85-0.86-1.69-1.31-2.56-1.65-0.39-3.32-0.72-5-1-1.37-1.29-2.71-2.63-4-4-0.99-0.33-1.98-0.66-3-1v-2c-0.58-0.27-1.15-0.54-1.75-0.81-2.3-1.22-4.27-2.5-6.25-4.19v-2c-0.72-0.06-1.44-0.13-2.19-0.19-3.69-1.07-5.34-2.92-7.81-5.81v-2c-0.72-0.08-1.44-0.17-2.19-0.25-3.4-0.91-5.26-2.35-7.81-4.75v-2c-0.74-0.08-1.48-0.17-2.25-0.25-3.29-0.9-4.45-2.3-6.75-4.75-0.99-0.33-1.98-0.66-3-1v-2c-0.58-0.27-1.15-0.54-1.75-0.81-2.3-1.22-4.27-2.5-6.25-4.19v-2c-0.72-0.06-1.44-0.13-2.19-0.19-3.69-1.07-5.34-2.92-7.81-5.81v-2c-0.72-0.08-1.44-0.17-2.19-0.25-4.22-1.13-6.75-3.66-9.75-6.75-2.1-2.17-2.1-2.17-5.18-4-2.88-2-2.88-2-3.94-4.19-0.46-0.9-0.46-0.9-0.94-1.81-1.14-0.19-1.14-0.19-2.31-0.37-3.32-0.78-4.37-1.99-6.63-4.51-3.14-3.32-5.86-5.22-10.06-7.12-2.37-2.06-2.37-2.06-4-4v-2c-0.72-0.08-1.44-0.17-2.19-0.25-4.28-1.14-6.83-3.75-9.87-6.88-1.79-1.93-1.79-1.93-3.88-2.81-2.88-1.49-4.77-3.78-7.06-6.06-2.16-1.3-2.16-1.3-4-2v-2c-0.93-0.23-1.85-0.46-2.81-0.69-3.84-1.58-4.12-2.84-6.19-6.31-1.72-1.02-3.45-2.04-5.23-2.96-2.68-1.57-4.61-3.83-6.77-6.04-2.16-1.3-2.16-1.3-4-2v-2c-0.93-0.23-1.85-0.46-2.81-0.69-3.84-1.58-4.12-2.84-6.19-6.31-1.72-1.02-3.45-2.04-5.22-2.97-3.82-2.22-6.36-5.41-8.78-9.03-0.84-0.37-1.69-0.74-2.56-1.13-3.39-1.85-5.29-3.61-7.94-6.37-3.31-3.44-6.1-5.56-10.5-7.5-2.06-1.88-2.06-1.88-4-4-2.85-3-5.17-5.4-9-7-1.33-0.67-2.66-1.34-4-2v-3h-2c-1.36-1.31-2.68-2.65-4-4-3.61-3.33-7.19-6.59-11.37-9.19-2.76-1.9-3.19-2.94-4.63-5.81-2.41-1.25-2.41-1.25-5-2-3.81-1.27-4.03-2.61-6-6-2.91-3.42-5.92-5.15-10-7v-2h-2c-1.23-1.46-2.45-2.92-3.64-4.41-2.47-2.9-5.31-5.03-8.64-6.83-3.97-2.57-6.95-5.94-10.17-9.38-3.24-3.36-6.19-5.51-10.55-7.38v-2h-2c-1.23-1.46-2.45-2.92-3.64-4.41-3.19-3.74-7.18-6.13-11.36-8.59-2.35-1.57-3.95-2.94-5.69-5.18-2.84-3.47-5.98-6.51-9.18-9.63-10.61-10.52-18.08-21.6-22.13-36.19-0.42-1.36-0.42-1.36-0.84-2.74-1.91-6.94-2.44-13.55-2.47-20.7-0.01-0.85-0.01-1.7-0.02-2.58 0.06-4.73 0.53-8.55 2.33-12.98 0.32-0.85 0.64-1.69 0.97-2.56 0.32-0.81 0.64-1.61 0.97-2.44 0.32-0.81 0.64-1.61 0.96-2.44 2.44-5.68 5.08-10 9.47-14.36 0.52-0.52 1.03-1.05 1.56-1.58 1.09-1.1 2.18-2.19 3.28-3.27 1.67-1.67 3.32-3.34 4.97-5.03l3.19-3.19c0.49-0.5 0.98-1 1.48-1.51 3.04-2.98 5.06-3.85 9.15-4.62 1.19-1.86 1.19-1.86 2-4 1.39-1.65 1.39-1.65 2.97-3.24l1.73-1.73c0.6-0.59 1.19-1.18 1.8-1.78 0.6-0.6 1.19-1.21 1.8-1.83 0.57-0.56 1.14-1.13 1.73-1.72 0.79-0.78 0.79-0.78 1.58-1.57 1.39-1.13 1.39-1.13 3.39-1.13v-2c0.74-0.25 1.48-0.49 2.24-0.75 3.07-1.39 4.7-2.9 7.01-5.35 0.78-0.8 1.55-1.6 2.35-2.43 1.6-1.69 3.21-3.39 4.81-5.08 1.16-1.2 1.16-1.2 2.34-2.43 1.05-1.1 1.05-1.1 2.11-2.23 2.14-1.73 2.14-1.73 4.78-2.23 0.78-0.17 1.56-0.33 2.36-0.5 1.19-1.86 1.19-1.86 2-4 1.39-1.65 1.39-1.65 2.97-3.24l1.73-1.73c0.6-0.59 1.19-1.18 1.8-1.78 0.6-0.6 1.19-1.21 1.8-1.83 0.57-0.56 1.14-1.13 1.73-1.72 0.52-0.52 1.05-1.04 1.58-1.57 1.39-1.13 1.39-1.13 3.39-1.13v-2c0.74-0.25 1.48-0.49 2.23-0.75 3.08-1.39 4.73-2.91 7.06-5.35 0.78-0.8 1.55-1.6 2.35-2.43s1.6-1.67 2.42-2.53c1.59-1.67 3.19-3.33 4.79-4.98 0.7-0.73 1.4-1.47 2.12-2.23 2.12-1.81 3.36-2.23 6.03-2.73 1.68-1.54 1.68-1.54 3.19-3.5 2.76-3.3 5.61-6.44 8.62-9.5 0.75-0.77 1.5-1.53 2.27-2.31 1.92-1.69 1.92-1.69 3.92-1.69v-2c1.12-0.38 1.12-0.38 2.26-0.77 2.92-1.31 4.42-2.61 6.59-4.93 0.69-0.71 1.38-1.43 2.08-2.17 1.43-1.51 2.85-3.02 4.28-4.54 0.68-0.72 1.37-1.43 2.08-2.16 0.61-0.66 1.23-1.32 1.87-2 1.84-1.43 1.84-1.43 5.84-1.43 0.26-0.58 0.52-1.16 0.78-1.76 2.23-4.09 5.76-7.11 9.03-10.37 0.72-0.73 1.43-1.45 2.16-2.2 0.7-0.7 1.4-1.4 2.11-2.12 0.64-0.63 1.27-1.27 1.92-1.92 2-1.63 2-1.63 4.45-2.57 3.19-1.33 4.89-3.11 7.27-5.6 0.87-0.89 1.74-1.78 2.64-2.7 0.89-0.93 1.78-1.86 2.7-2.82 1.78-1.86 3.56-3.7 5.35-5.54 0.79-0.82 1.57-1.64 2.38-2.48 2.23-1.94 3.39-2.42 6.21-2.92 1.68-1.54 1.68-1.54 3.19-3.5 2.76-3.3 5.61-6.44 8.62-9.5 0.75-0.77 1.5-1.53 2.27-2.31 1.92-1.69 1.92-1.69 3.92-1.69v-2c0.73-0.23 1.45-0.46 2.19-0.7 3.35-1.55 5.21-3.42 7.75-6.09 0.92-0.94 1.83-1.88 2.77-2.85l4.29-4.5c1.39-1.45 2.79-2.9 4.19-4.34 0.83-0.87 1.66-1.73 2.51-2.63 2.3-1.89 2.3-1.89 6.3-1.89 0.38-0.87 0.38-0.87 0.78-1.76 1.35-2.47 2.86-4.14 4.85-6.13 0.7-0.71 1.41-1.42 2.14-2.15s1.47-1.46 2.23-2.21c0.74-0.75 1.48-1.49 2.24-2.26 0.7-0.7 1.41-1.41 2.14-2.13 0.64-0.65 1.29-1.29 1.96-1.96 1.66-1.4 1.66-1.4 3.66-1.4v-2c1.07-0.34 1.07-0.34 2.17-0.68 3.51-1.64 5.52-3.72 8.21-6.51 0.49-0.51 0.99-1.01 1.5-1.53 1.57-1.61 3.13-3.23 4.68-4.84 2.06-2.14 4.12-4.26 6.2-6.38 0.91-0.95 1.82-1.89 2.76-2.87 2.38-2.1 3.44-2.73 6.48-3.19 1.51-1.37 1.51-1.37 2.88-3.19 3.61-4.32 7.47-8.32 11.43-12.31 0.63-0.64 1.25-1.27 1.89-1.93l1.79-1.79c0.53-0.54 1.06-1.07 1.61-1.62 1.4-1.16 1.4-1.16 3.4-1.16v-2c1.07-0.34 1.07-0.34 2.17-0.68 3.51-1.64 5.52-3.72 8.21-6.51 0.49-0.51 0.99-1.01 1.5-1.53 1.57-1.61 3.13-3.23 4.68-4.84 2.06-2.14 4.12-4.26 6.2-6.38 0.91-0.95 1.82-1.89 2.76-2.87 2.46-2.17 3.43-2.54 6.48-3.19 1.68-1.52 1.68-1.52 3.19-3.48 4.06-4.86 8.42-9.35 12.87-13.83 0.78-0.8 1.56-1.6 2.36-2.42 0.76-0.77 1.52-1.53 2.3-2.32 0.68-0.69 1.36-1.38 2.06-2.09 2.22-1.86 2.22-1.86 5.12-3.25 3.66-1.9 6.21-4.39 9.02-7.34 0.53-0.55 1.07-1.1 1.62-1.66 1.71-1.74 3.4-3.49 5.09-5.24 2.23-2.31 4.47-4.61 6.72-6.91 0.76-0.8 0.76-0.8 1.54-1.61 2.59-2.64 4.4-4.33 8.11-4.85 1.51-1.37 1.51-1.37 2.88-3.19 3.61-4.32 7.47-8.32 11.43-12.31 0.63-0.64 1.25-1.27 1.89-1.93l1.79-1.79c0.53-0.54 1.06-1.07 1.61-1.62 1.4-1.16 1.4-1.16 3.4-1.16 0.21-0.6 0.41-1.2 0.63-1.81 1.37-2.19 1.37-2.19 4.05-3.43 4.08-2.16 6.73-4.87 9.89-8.18 1.24-1.27 2.48-2.53 3.72-3.8 1.93-1.99 3.85-3.99 5.78-5.98 1.87-1.94 3.75-3.86 5.63-5.78 0.57-0.61 1.14-1.21 1.73-1.83 1.45-1.47 3.01-2.84 4.57-4.19h4c0.21-0.54 0.42-1.07 0.64-1.62 1.89-3.31 4.49-5.8 7.17-8.46l1.73-1.73c1.2-1.2 2.41-2.4 3.61-3.6 1.85-1.84 3.69-3.69 5.53-5.55 1.17-1.16 2.34-2.33 3.51-3.5 0.55-0.55 1.1-1.11 1.67-1.68 3.91-3.86 3.91-3.86 6.14-3.86v-2c0.69-0.2 1.38-0.39 2.09-0.59 3.98-1.93 6.48-4.77 9.47-7.97 1.12-1.2 2.25-2.39 3.38-3.57 0.5-0.53 0.99-1.05 1.49-1.6 1.83-1.48 3.31-1.74 5.57-2.27 0.74-0.99 0.74-0.99 1.5-2 1.78-2.38 2.68-2.46 5.5-3l2-2h4v-2l8-1v-2c1.81-0.42 1.81-0.42 3.65-0.84 1.58-0.37 3.15-0.73 4.73-1.1 0.79-0.18 1.59-0.36 2.4-0.55 0.76-0.18 1.52-0.36 2.31-0.54 0.7-0.16 1.4-0.32 2.12-0.49 3.86-1.04 6.88-1.64 10.96-1.65zm594.83 614.17-1 2h2l-1-2zm-35 30-1 2h2l-1-2zm-133 107 1 2zm-45 35 1 2zm-20 15 1 2zm-20 15 1 2zm-20 15 1 2zm-31 22 1 2 1-2h-2zm-20 15 1 2 1-2h-2zm-4 3 1 2zm-31 22 1 2 1-2h-2zm-80 55 1 2 1-2h-2zm-15 10 1 2 1-2h-2zm-15 10 1 2 1-2h-2zm-15 10 1 2 1-2h-2z" fill="#E56506"/>
<path transform="translate(230.57 585.7)" d="m0 0c0.72-0 1.43-0.01 2.17-0.01 1.51-0.01 3.01-0.01 4.52 0 2.3 0 4.6-0.03 6.91-0.05h4.4c0.69-0.01 1.37-0.02 2.08-0.03 4.16 0.04 6.32 0.54 9.35 3.39 0.82 2.02 0.82 2.02 1.27 4.38 0.19 0.91 0.37 1.81 0.55 2.74 0.19 0.99 0.37 1.98 0.55 3.01 0.21 1.05 0.42 2.1 0.63 3.19 0.69 3.55 1.35 7.12 2 10.68 0.37 1.93 0.73 3.86 1.09 5.79 1.56 8.34 3.08 16.7 4.59 25.05 0.52 2.88 1.04 5.75 1.56 8.62 3.06 16.82 6.02 33.66 8.76 50.54 3.01-2.88 5.22-6.14 7.5-9.61 0.42-0.64 0.85-1.29 1.29-1.95 1.37-2.06 2.73-4.13 4.09-6.19 1.35-2.05 2.71-4.1 4.06-6.14 0.85-1.27 1.69-2.55 2.52-3.82 2.4-3.62 4.86-7.16 7.42-10.66 1.16-1.68 2.16-3.38 3.15-5.16 1.99-3.5 4.22-6.73 6.6-9.97 3.56-4.91 7.02-9.88 10.37-14.94 0.42-0.62 0.83-1.24 1.26-1.89 1.65-2.5 3.31-5.01 4.96-7.52 4.92-7.45 9.91-14.84 15.03-22.15 0.49-0.69 0.97-1.39 1.47-2.1 2.34-3.32 4.74-6.59 7.27-9.77 0.43-0.56 0.87-1.11 1.32-1.68 5.87-5.01 14.42-3.79 21.65-3.76 2.24 0 4.47-0.03 6.7-0.05h4.26c1.29-0.01 2.58-0.01 3.9-0.01 3.18 0.37 3.18 0.37 5.14 1.55 1.5 2.62 1.19 4.36 0.87 7.36-0.12 1.17-0.24 2.34-0.36 3.54-0.23 1.94-0.23 1.94-0.47 3.92-0.15 1.39-0.31 2.78-0.46 4.17-0.54 4.72-1.13 9.43-1.72 14.14-0.11 0.86-0.22 1.72-0.33 2.61-2.39 19.02-5.19 37.96-8.15 56.9-0.31 2-0.62 4-0.93 6.01-2.77 17.83-5.81 35.61-8.86 53.4-0.44 2.62-0.89 5.23-1.33 7.85-0.63 3.72-1.27 7.44-1.91 11.15-0.19 1.11-0.38 2.22-0.57 3.36-3.5 20.17-3.5 20.17-5.74 22.41-3 0.11-5.99 0.16-8.99 0.17-0.91 0-1.81 0.01-2.74 0.01-1.92 0-3.83 0.01-5.75 0.01-2.94 0-5.88 0.02-8.82 0.04h-5.57c-0.88 0.01-1.76 0.02-2.67 0.02-6.23-0.02-6.23-0.02-8.46-2.25 0.44-7.87 2.17-15.59 3.69-23.31 0.27-1.39 0.54-2.79 0.81-4.18 1.67-8.49 3.45-16.94 5.32-25.38 2.75-12.56 5.14-25.17 7.49-37.8 0.42-2.26 0.84-4.51 1.27-6.76 0.59-3.18 1.18-6.36 1.76-9.54 0.19-0.97 0.37-1.94 0.56-2.93 0.16-0.9 0.32-1.79 0.49-2.7 0.14-0.78 0.28-1.56 0.43-2.37 0.34-2.23 0.34-2.23-0.82-5.03-0.41 0.66-0.82 1.31-1.25 1.99-3.16 5-6.37 9.97-9.68 14.89-3.52 5.24-6.84 10.58-10.13 15.96-3.43 5.6-6.99 11.13-10.54 16.66-3.17 4.94-6.26 9.91-9.3 14.93-4.06 6.69-8.17 13.35-12.47 19.88-0.59 0.91-0.59 0.91-1.19 1.83-2.47 3.71-5.2 6.8-8.44 9.86l-1 1c-4.24 0.24-8.48 0.23-12.72 0.24-2.14 0.01-4.27 0.04-6.4 0.07-1.35 0.01-2.7 0.02-4.06 0.02-1.23 0.01-2.47 0.02-3.74 0.03-3.08-0.36-3.08-0.36-4.94-1.57-1.44-2.26-1.8-4.08-2.2-6.73-0.16-1-0.31-2-0.48-3.02-0.15-1.05-0.3-2.09-0.46-3.16-0.31-2.03-0.62-4.05-0.93-6.07-0.17-1.09-0.34-2.18-0.51-3.3-0.6-3.76-1.25-7.5-1.92-11.24-2.05-11.46-3.9-22.96-5.76-34.46-0.54-3.32-1.08-6.64-1.62-9.95-0.34-2.05-0.67-4.1-1-6.14-0.74-4.58-1.49-9.15-2.26-13.72h-2c-0.25 1.24-0.5 2.48-0.77 3.76-1.29 5.82-3.11 11.44-4.91 17.12-3.1 9.91-5.9 19.87-8.46 29.94-2.73 10.77-5.6 21.51-8.48 32.24-0.46 1.72-0.92 3.44-1.38 5.15-0.89 3.31-1.78 6.61-2.68 9.91-0.9 3.34-1.79 6.68-2.66 10.02-0.43 1.64-0.87 3.28-1.3 4.92-0.2 0.76-0.39 1.51-0.59 2.29-0.99 3.7-1.72 6.27-4.77 8.65-2.97 0.3-5.74 0.42-8.72 0.4-1.28 0-1.28 0-2.58 0.01-1.81 0-3.62-0.01-5.42-0.02-2.77-0.01-5.53 0-8.3 0.02-1.75 0-3.5 0-5.26-0.01-0.83 0.01-1.65 0.01-2.51 0.02-5.81-0.07-5.81-0.07-7.95-1.94-0.41-0.49-0.83-0.98-1.26-1.48 25.1-85.82 25.1-85.82 35.2-116.55 0.88-2.69 1.77-5.39 2.65-8.08 13.51-41.21 13.51-41.21 19.84-58.24 0.37-1.04 0.75-2.08 1.13-3.15 0.35-0.92 0.71-1.84 1.07-2.78 0.44-1.16 0.44-1.16 0.88-2.35 3.1-4.65 8.74-4.16 13.8-4.15z" fill="#F9F9F9"/>
<path transform="translate(506,632)" d="m0 0c0.93 0.2 1.87 0.41 2.83 0.62 12.25 3.11 21.62 12.08 28.18 22.61 11.56 21.46 10.18 48.67 3.68 71.65-1.13 3.74-2.37 7.44-3.69 11.12h-2c-0.09 0.69-0.17 1.38-0.26 2.09-0.92 3.6-2.61 6.4-4.62 9.47-0.39 0.61-0.79 1.22-1.2 1.85-12.88 19.24-30.98 31.5-53.34 37.21-19.28 2.86-38.81-1.58-55.26-11.89-11.81-8.79-16.46-21.71-18.65-35.83-3.57-28.94 2.64-56.89 20.64-80.15 13.83-17.23 32.85-28.24 54.81-31.44 10.13-0.81 18.96 0.38 28.88 2.69z" fill="#FAFAFA"/>
<path transform="translate(846.95 633.9)" d="m0 0h2.68c2.83 0.01 5.67 0.02 8.5 0.04 1.92 0 3.84 0 5.75 0.01 4.71 0.01 9.42 0.03 14.12 0.05v2h2c0.73 5.56 1.15 11.1 1.4 16.7 0.03 0.72 0.06 1.44 0.1 2.17 0.03 0.74 0.07 1.49 0.1 2.25 0.68 14.93 1.74 29.77 3.4 44.63 0.09 0.76 0.17 1.51 0.26 2.29 0.86 7.76 1.84 15.38 3.74 22.96h2c18.45-23.13 28.64-55.42 36.81-83.39 0.38-1.25 0.38-1.25 0.76-2.53 0.2-0.72 0.41-1.44 0.63-2.18 0.96-2.26 1.91-3.35 3.8-4.9 1.95-0.37 1.95-0.37 4.18-0.36 1.26 0 1.26 0 2.54-0.01 1.35 0.02 1.35 0.02 2.73 0.04 0.93 0 1.85 0 2.8 0.01 1.96 0 3.92 0.02 5.87 0.04 3 0.03 6.01 0.04 9.01 0.04l5.7 0.03c0.9 0.01 1.8 0.01 2.73 0.02 6.33 0.07 6.33 0.07 7.44 1.19-0.42 6.16-2.49 11.47-4.75 17.19-0.54 1.4-0.54 1.4-1.1 2.83-1.04 2.66-2.09 5.32-3.15 7.98-0.46 1.16-0.92 2.32-1.39 3.51-7.25 17.77-16.16 34.83-24.98 51.86-0.52 1.02-1.05 2.04-1.59 3.09-0.49 0.95-0.99 1.9-1.5 2.87-0.44 0.85-0.88 1.71-1.33 2.58-1.21 2.09-1.21 2.09-3.21 4.09-0.39 0.97-0.78 1.94-1.18 2.94-2.8 6.79-7.2 12.89-11.5 18.81-1.92 2.7-3.55 5.4-5.15 8.29-1.98 3.33-4.26 6.45-6.51 9.61-1.27 1.8-2.5 3.63-3.72 5.47-1.51 2.25-3.07 4.41-4.7 6.58-2.03 2.69-4.04 5.39-6.02 8.12-15.85 21.68-34.49 41.48-62.22 46.18-3.17 0.3-6.31 0.38-9.5 0.37h-2.6c-10.14-0.18-21.32-1.61-29.9-7.37 0.68-3.98 1.85-7.58 3.25-11.36 0.45-1.2 0.89-2.4 1.35-3.63 0.23-0.62 0.46-1.23 0.7-1.87 0.71-1.9 1.41-3.8 2.11-5.7 3.46-9.31 3.46-9.31 4.59-10.44 1.9 0.08 1.9 0.08 4.25 0.37 0.77 0.09 1.54 0.18 2.33 0.28 2.42 0.35 2.42 0.35 4.73 0.87 9.97 1.77 20.32 1.54 28.96-3.96 5.33-3.8 10.35-8.34 12.73-14.56 0.79-7.83-1.21-15.03-3.07-22.58-8.9-36.26-16.34-75.41-15.99-112.8 0.01-0.94 0.01-1.87 0.02-2.84 0.01-2.26 0.02-4.52 0.04-6.78 3.39-1.69 7.23-1.12 10.95-1.1z" fill="#F9F9F9"/>
<path transform="translate(813.5 638.69)" d="m0 0c7.31 6.47 12.11 13.86 14.5 23.31 0.18 0.61 0.37 1.22 0.55 1.85 2.9 13.95-1.1 27.43-8.55 39.15-10.92 15.47-29.93 22.37-47.88 25.69-12.11 2.09-24.82 3.31-37.12 3.31 1.26 7.22 3.42 11.18 9.26 15.63 6.43 3.22 13.45 3.76 20.55 3.75h2.44c7.25-0.11 14.12-1.37 21.16-3.04 7.48-1.75 7.48-1.75 11.59-0.34 2.7 2.7 1.82 9.87 2.09 13.73 0.16 2.13 0.34 4.26 0.51 6.39 0.1 1.36 0.2 2.71 0.29 4.06 0.09 1.24 0.19 2.47 0.28 3.74-0.17 3.08-0.17 3.08-1.42 4.93-1.88 1.24-3.43 1.88-5.6 2.47-0.76 0.2-1.52 0.41-2.31 0.62-0.81 0.21-1.63 0.41-2.46 0.63-0.85 0.21-1.69 0.43-2.56 0.65-23.44 5.76-50.01 6.41-71.82-5.22-3.99-2.7-7.53-5.66-11-9-0.91-0.84-0.91-0.84-1.83-1.71-10.87-11.28-13.55-30.46-13.38-45.48 1.64-29.52 12.92-54.33 34.67-74.44 22.01-19.48 62.77-29.51 88.04-10.68z" fill="#FAFAFA"/>
<path transform="translate(432.03 467.55)" d="m0 0h2.37c1.24 0.03 1.24 0.03 2.52 0.06 0.86 0.01 1.72 0.01 2.6 0.02 2.74 0.02 5.48 0.07 8.23 0.12 1.86 0.02 3.72 0.04 5.58 0.06 4.55 0.04 9.11 0.11 13.67 0.19 4.37 6.47 5.75 13.27 7.42 20.82 0.31 1.37 0.63 2.74 0.94 4.12 0.83 3.62 1.64 7.24 2.46 10.87 0.8 3.57 1.61 7.14 2.42 10.71 2.44 10.72 4.87 21.45 7.24 32.19 0.63 2.89 1.27 5.78 1.91 8.66 0.31 1.37 0.61 2.74 0.9 4.11 0.41 1.88 0.83 3.76 1.25 5.65 0.23 1.06 0.47 2.13 0.71 3.23 0.65 2.84 0.65 2.84 2.75 5.64 1.34-5.68 2.68-11.37 4.01-17.06l1.47-6.24c3.01-12.8 5.96-25.61 8.81-38.44 0.27-1.21 0.54-2.41 0.82-3.66 1.31-5.89 2.62-11.79 3.91-17.69l1.44-6.48c0.22-0.98 0.43-1.97 0.65-2.98 1.03-4.61 1.95-8.62 4.89-12.45 3.25-1.62 6.82-1.2 10.4-1.23 0.83-0.01 1.67-0.02 2.52-0.03 1.77-0.01 3.53-0.02 5.3-0.03 2.7-0.02 5.4-0.06 8.1-0.11 1.71-0.01 3.43-0.01 5.14-0.02 0.81-0.02 1.62-0.04 2.45-0.05 5.62 0.02 5.62 0.02 7.8 2.14 1.6 2.9 1.66 4.79 1.65 8.09 0.01 1.17 0.01 2.34 0.02 3.55-0.01 1.93-0.01 1.93-0.03 3.89 0 1.37 0.01 2.74 0.01 4.11 0 3.71-0.01 7.42-0.03 11.13-0.01 3.89-0.01 7.77-0.01 11.65-0.01 6.52-0.02 13.03-0.04 19.55-0.03 8.37-0.04 16.75-0.05 25.12 0 7.19-0.01 14.38-0.03 21.57 0 2.32 0 4.63-0.01 6.95 0 3.63-0.01 7.26-0.03 10.89 0 1.98 0 3.96-0.01 5.93 0 1.17-0.01 2.33-0.01 3.53-0.01 1.02-0.01 2.04-0.01 3.09-0.13 2.28-0.13 2.28-1.13 3.28-3.93 0.42-7.88 0.52-11.82 0.69-1.1 0.06-2.21 0.12-3.35 0.18-1.6 0.07-1.6 0.07-3.23 0.15-0.98 0.04-1.96 0.09-2.96 0.14-2.64-0.16-2.64-0.16-6.64-2.16l-1-101h-2c-0.11 1.24-0.22 2.47-0.34 3.74-0.66 5.94-2 11.68-3.36 17.49-0.27 1.16-0.54 2.33-0.81 3.53-0.87 3.77-1.74 7.54-2.62 11.31-1.19 5.15-2.37 10.3-3.56 15.45-0.29 1.26-0.58 2.52-0.88 3.82-1.63 7.12-3.24 14.25-4.78 21.4-0.25 1.14-0.25 1.14-0.5 2.31-0.73 3.37-1.44 6.74-2.15 10.12-0.24 1.14-0.48 2.27-0.73 3.45-0.3 1.43-0.3 1.43-0.61 2.9-0.64 2.38-1.47 4.33-2.66 6.48-4.08 0.13-8.15 0.22-12.23 0.28-1.39 0.02-2.77 0.06-4.16 0.1-1.99 0.06-3.98 0.09-5.98 0.11-1.2 0.03-2.4 0.05-3.63 0.08-3-0.57-3-0.57-4.61-2.78-1.35-2.7-2.12-5.02-2.77-7.96-0.23-1.02-0.46-2.04-0.69-3.09-0.36-1.65-0.36-1.65-0.72-3.33-0.39-1.74-0.39-1.74-0.78-3.51l-1.65-7.5c-0.85-3.91-1.71-7.82-2.58-11.73-2.53-11.39-5.02-22.79-7.49-34.19l-2.76-12.6c-0.63-2.9-1.26-5.82-1.88-8.73-0.38-1.75-0.77-3.49-1.15-5.24-0.17-0.8-0.33-1.59-0.5-2.41-0.41-1.85-0.91-3.68-1.42-5.5l-2-1 1 2c0.09 1.42 0.12 2.84 0.12 4.26 0.01 0.9 0.01 1.79 0.01 2.71v2.98 3.12 10.28 7.12 14.92c-0.01 6.39-0.01 12.78 0 19.17v14.7 7.07 9.86 2.98c0 1.34 0 1.34-0.01 2.7v2.36c-0.12 1.77-0.12 1.77-1.12 2.77-4.31 0.26-8.63 0.19-12.94 0.19-1.22 0.01-2.44 0.03-3.7 0.04h-3.52c-1.07 0.01-2.14 0.01-3.25 0.02-2.59-0.25-2.59-0.25-4.59-2.25-0.26-2.39-0.26-2.39-0.27-5.45-0.01-1.16-0.02-2.31-0.03-3.51 0-1.27 0-2.55 0.01-3.87-0.01-1.35-0.02-2.7-0.03-4.06-0.01-3.68-0.02-7.36-0.02-11.04 0-3.07-0.01-6.15-0.02-9.22-0.01-7.24-0.02-14.49-0.01-21.74 0-7.48-0.02-14.95-0.06-22.43-0.02-6.42-0.03-12.84-0.03-19.25 0-3.84-0.01-7.67-0.03-11.51-0.02-3.6-0.02-7.21 0-10.82 0-1.95-0.02-3.91-0.03-5.86 0-1.17 0.01-2.33 0.02-3.53v-3.06c0.88-4.7 3.8-7.16 8.53-7.1z" fill="#F9F9F9"/>
<path transform="translate(631.19 630.56)" d="m0 0c0.77-0.01 1.53-0.02 2.32-0.04 14.99-0.2 29.84 1.25 41.19 12.1 3.93 4.28 6.76 9.18 9.3 14.38 0.8 1.45 0.8 1.45 1.61 2.92 2.35 5.63 1.97 11.77 1.96 17.76-0.01 0.66-0.01 1.32-0.01 2-0.06 13.31-2.34 25.71-5.62 38.6-1 3.96-1.96 7.92-2.91 11.89-1 4.21-2.02 8.42-3.05 12.62-1.64 6.65-3.24 13.29-4.72 19.97-0.26 1.21-0.53 2.41-0.81 3.65-0.49 2.25-0.98 4.5-1.46 6.76-0.33 1.49-0.33 1.49-0.66 3.01-0.19 0.86-0.37 1.72-0.56 2.61-0.88 2.53-1.71 3.53-3.77 5.21-2.99 0.28-5.76 0.39-8.75 0.36h-2.6c-1.81 0-3.62-0.01-5.43-0.03-2.77-0.02-5.55-0.02-8.32-0.01-1.76-0.01-3.52-0.01-5.28-0.02h-2.52c-5.87-0.07-5.87-0.07-8.1-2.3 0.38-7.18 2.04-14 3.73-20.96 0.41-1.72 0.41-1.72 0.83-3.47 0.87-3.65 1.75-7.3 2.63-10.95 2-8.33 3.99-16.67 5.96-25.01 0.58-2.44 1.16-4.88 1.74-7.33 0.86-3.62 1.7-7.25 2.54-10.88 0.26-1.09 0.52-2.17 0.79-3.29 2.05-9.03 3.78-18.16-1.08-26.52-2.49-3.48-5.02-4.82-9.14-5.59-2.45-0.1-4.91-0.13-7.37-0.13-1.29 0-2.58 0-3.9-0.01-3.34 0.12-6.45 0.5-9.73 1.14-0.29 1.37-0.29 1.37-0.59 2.77-2.26 10.42-4.73 20.79-7.27 31.14-2.46 10.04-4.85 20.1-7.2 30.16-0.94 4.03-1.88 8.06-2.83 12.1-0.79 3.37-1.57 6.74-2.35 10.12-0.89 3.82-1.79 7.65-2.68 11.47-0.27 1.16-0.53 2.32-0.81 3.52-0.38 1.61-0.38 1.61-0.77 3.26-0.22 0.94-0.43 1.87-0.66 2.84-0.94 2.92-1.99 5.16-3.84 7.62-3.09 0.49-5.63 0.65-8.72 0.59h-2.58c-1.81 0-3.62-0.02-5.42-0.05-2.77-0.04-5.53-0.04-8.3-0.03-1.75-0.02-3.5-0.03-5.26-0.04h-2.51c-5.69-0.12-5.69-0.12-8-1.69-1.21-1.78-1.21-1.78-1.09-4.05 0.35-1.33 0.35-1.33 0.71-2.68 0.25-1 0.5-2 0.76-3.02 0.29-1.08 0.58-2.16 0.88-3.27 0.58-2.29 1.16-4.58 1.75-6.87 0.3-1.15 0.6-2.31 0.91-3.51 1.27-4.94 2.45-9.9 3.63-14.86l1.38-5.76c0.23-0.97 0.46-1.94 0.7-2.94 0.75-3.13 1.5-6.26 2.26-9.38 0.53-2.22 1.06-4.43 1.59-6.64 0.27-1.11 0.53-2.22 0.81-3.37 1.73-7.19 3.45-14.38 5.17-21.58 1.18-4.92 2.36-9.85 3.54-14.77 0.56-2.37 1.13-4.74 1.7-7.11 0.79-3.31 1.58-6.63 2.38-9.94 0.23-0.97 0.46-1.94 0.7-2.94 1.1-4.58 2.26-9.13 3.54-13.66 0.23-0.8 0.46-1.61 0.7-2.44 0.77-1.99 0.77-1.99 2.98-3.96 6.51-2.41 13.07-4.31 19.79-6.03 1.27-0.33 2.54-0.65 3.85-0.99 10.65-2.36 21.49-2.36 32.34-2.45z" fill="#FAFAFA"/>
<path transform="translate(794.69 513.56)" d="m0 0c12.39 11.72 17.35 26.02 17.95 42.69 0.25 18.72-3.12 32.66-15.64 46.75-0.92 1.04-0.92 1.04-1.85 2.1-2.73 2.42-5.57 3.89-8.84 5.52-1.15 0.59-2.31 1.18-3.51 1.79-13.59 6.08-34.1 6.33-47.95 1.04-16.27-8.31-24.54-19.08-30.27-36.28-4.41-16.56-1.44-35.15 6.42-50.17 8.31-13.35 18.16-20.18 33.31-24.38 17.44-3.15 36.15 0.08 50.38 10.94z" fill="#FAFAFA"/>
<path transform="translate(670.93 512.23)" d="m0 0c11.27 9.64 18.34 23.03 20.07 37.77 1.33 19.1-1.36 36.73-13.97 51.91-10.12 10.49-21.38 14.14-35.61 14.51-9.11 0.06-17.79-0.19-26.42-3.42-0.79-0.27-1.58-0.55-2.39-0.84-10.3-4.07-20.25-12.3-25.14-22.31-7.69-19.28-7.84-39.43-0.47-58.85 1.38-3 2.9-5.46 5-8 0.53-0.67 1.05-1.34 1.59-2.03 18.05-21.93 54.83-26.32 77.34-8.74z" fill="#FAFAFA"/>
<path transform="translate(1077,603)" d="m0 0c0.99 0.33 1.98 0.66 3 1 1.15 2.96 2.07 5.83 2.94 8.88 0.29 0.98 0.58 1.97 0.88 2.99 1.08 3.7 2.13 7.42 3.18 11.13 0.22 0.77 0.43 1.54 0.66 2.33 3.07 10.88 6.1 21.77 9.12 32.67 2.14 7.72 4.3 15.44 6.48 23.16 0.55 1.94 1.09 3.89 1.64 5.83 1.72 6.11 3.44 12.22 5.17 18.32 0.65 2.27 1.29 4.54 1.93 6.81 0.29 1.02 0.58 2.04 0.88 3.1 2.81 9.96 2.81 9.96 3.12 13.78-3.7 5.23-9.29 7.42-15 10-1.03 0.47-2.07 0.95-3.13 1.44-54.27 24.14-114.42 27.28-172.87 26.56 0.5-0.99 0.5-0.99 1-2 2.18-0.57 2.18-0.57 5.1-1.03 1.64-0.27 1.64-0.27 3.32-0.54 1.8-0.28 1.8-0.28 3.64-0.57 2.56-0.41 5.13-0.82 7.69-1.24 1.36-0.21 2.72-0.43 4.08-0.64 6.93-1.1 13.84-2.24 20.76-3.39 1.02-0.16 1.02-0.16 2.06-0.34 59.9-9.85 59.9-9.85 115.35-33.25 0.82-0.38 1.63-0.77 2.47-1.16 1.93-1.9 1.93-1.9 1.38-5.41-0.98-7.52-3.09-14.85-5-22.18-0.42-1.62-0.83-3.25-1.25-4.87-0.87-3.4-1.75-6.79-2.63-10.18-1.12-4.33-2.23-8.65-3.34-12.98-0.86-3.35-1.73-6.7-2.59-10.06-0.41-1.59-0.82-3.18-1.23-4.78-2.03-7.88-4.09-15.7-6.81-23.38-3.29 0-4.95 2.39-7.38 4.5-5.07 4.35-10.29 8.11-15.93 11.71-2.72 1.75-2.72 1.75-5.19 3.84-2.61 2.03-5.14 3.4-8.12 4.83-5.07 2.45-10 5.07-14.91 7.82-2.45 1.29-4.89 2.31-7.47 3.3-1.67 0.71-3.33 1.42-5 2.12-5.91 2.46-11.85 4.82-17.81 7.13-0.9 0.35-1.79 0.71-2.72 1.07-4.86 1.87-9.27 3.2-14.47 3.68-1.37-2.73-0.65-4.56 0.18-7.41 1.78-5.05 3.53-9.18 8.24-12.08 6-2.69 12.3-4.53 18.58-6.48 4.37-1.5 8.34-3.53 12.38-5.78 0.69-0.38 1.38-0.77 2.09-1.16 1.29-0.72 2.57-1.44 3.85-2.16 2.18-1.21 4.42-2.26 6.68-3.31 18.5-9.18 34.42-22.77 49.35-36.83 0.71-0.66 1.42-1.31 2.15-1.98 0.61-0.57 1.22-1.14 1.84-1.73 0.55-0.36 1.1-0.71 1.66-1.08z" fill="#F9F9F9"/>
<path transform="translate(822,506)" d="m0 0c4.06-0.12 8.11-0.21 12.17-0.27 1.38-0.03 2.76-0.06 4.14-0.11 1.98-0.06 3.97-0.08 5.96-0.11 1.79-0.04 1.79-0.04 3.61-0.08 3.12 0.57 3.12 0.57 5.41 2.66 1.95 3.31 2.89 6.26 3.82 9.99 0.18 0.69 0.35 1.37 0.53 2.07 0.38 1.46 0.75 2.93 1.11 4.39 0.95 3.84 1.95 7.68 2.94 11.51 0.19 0.77 0.39 1.53 0.59 2.32 1.73 6.74 3.59 13.45 5.53 20.13 0.27 0.93 0.53 1.86 0.81 2.81 1.77 6.06 3.94 11.87 6.38 17.69 1.56-5.31 3.12-10.62 4.67-15.93 0.83-2.81 1.66-5.63 2.48-8.45 2.49-8.46 4.96-16.93 7.29-25.44 0.35-1.29 0.71-2.59 1.07-3.88 0.65-2.36 1.28-4.71 1.9-7.07 0.29-1.04 0.58-2.08 0.87-3.16 0.24-0.89 0.48-1.78 0.72-2.7 1.24-2.95 2.44-4.44 5-6.37 2.84-0.45 2.84-0.45 6.08-0.39 1.16 0.01 2.32 0.03 3.51 0.04 1.21 0.03 2.42 0.07 3.66 0.1 1.83 0.03 1.83 0.03 3.7 0.05 3.02 0.05 6.03 0.12 9.05 0.2 1.85 6.91-0.37 11.73-3 18.19-0.85 2.17-1.7 4.35-2.55 6.52-0.63 1.61-0.63 1.61-1.28 3.25-1.57 4.09-3.01 8.21-4.42 12.35-3.78 11-7.88 21.88-11.96 32.77-0.53 1.43-1.07 2.87-1.61 4.31-0.26 0.7-0.52 1.4-0.79 2.13-1.39 3.73-2.75 7.48-4.06 11.24-0.27 0.78-0.54 1.55-0.82 2.35-0.51 1.49-1.02 2.97-1.53 4.46-1.08 3.13-2.13 5.66-3.98 8.43-4.38 0.83-8.86 0.79-13.31 0.94-1.24 0.07-2.48 0.13-3.75 0.2-1.19 0.05-2.39 0.09-3.62 0.14-1.09 0.04-2.18 0.08-3.31 0.13-3.82-0.52-5.34-1.66-8.01-4.41-1.34-2.52-1.34-2.52-2.36-5.38-0.39-1.07-0.78-2.15-1.18-3.25-0.4-1.15-0.8-2.31-1.21-3.49-0.43-1.2-0.86-2.4-1.3-3.63-1.34-3.75-2.65-7.5-3.95-11.25-0.6-1.74-0.6-1.74-1.22-3.51-1.54-4.42-3.07-8.85-4.6-13.28-2.15-6.28-4.37-12.54-6.68-18.77-0.27-0.73-0.54-1.47-0.82-2.22-1.28-3.46-2.56-6.91-3.86-10.36-1.26-3.39-2.51-6.78-3.76-10.17-0.4-1.07-0.8-2.14-1.22-3.24-0.37-1.01-0.74-2.02-1.12-3.06-0.33-0.9-0.66-1.79-1-2.72-0.8-2.98-0.84-5.59-0.72-8.67z" fill="#F9F9F9"/>
<path transform="translate(492.5 667.06)" d="m0 0c6.08 4.71 8.61 10.57 10.12 18 1.9 19.88-1.07 37.53-12.62 53.94-0.41 0.6-0.82 1.19-1.25 1.81-3.86 5.14-9.67 9.16-15.75 11.19-2.43 0.14-4.87 0.22-7.31 0.25-1.3 0.02-2.59 0.05-3.93 0.08-5.22-0.46-8.43-2.25-12.45-5.52-7.21-8.77-7.07-20.99-6.31-31.81 1.2-8.44 3.45-16.27 7-24 0.36-0.83 0.72-1.67 1.09-2.52 4.18-9.13 10.54-17.3 19.91-21.48 6.87-1.79 14.71-2 21.5 0.06z" fill="#E66606"/>
<path transform="translate(772.8 529.18)" d="m0 0c7.72 6.39 10.02 17.02 10.95 26.5 0.66 11.18-0.82 21.63-7.94 30.57-4.74 5.05-8.4 6.59-15.31 6.9-8.32-0.2-15.32-1.24-21.5-7.15-7.53-10.68-8.53-23.82-6.43-36.43 1.23-5.21 2.73-9.95 5.43-14.57h2c0.24-0.6 0.49-1.2 0.75-1.82 2.06-3.61 4.41-4.85 8.25-6.37 8.17-2.03 16.38-1.82 23.8 2.37z" fill="#E66606"/>
<path transform="translate(649,528)" d="m0 0c2.69 2.31 2.69 2.31 5 5 0.66 0.73 1.32 1.45 2 2.2 2.34 3.28 3.35 6.44 4.25 10.3 0.17 0.7 0.34 1.41 0.51 2.13 2.34 10.53 1.91 20.2-1.76 30.37-0.27 0.74-0.53 1.49-0.81 2.25-2.33 5.48-5.64 9.4-11.19 11.75-9.31 1.7-17.7 2.08-25.89-3.22-6.19-4.67-8.99-11.23-10.11-18.78-0.89-13.06-1.22-26.8 7.19-37.62 7.82-7.87 20.89-8.55 30.81-4.38z" fill="#E66606"/>
<path transform="translate(1103,752)" d="m0 0c3.35 5.28 4.55 10.85 5 17-8.57 3.84-17.17 6.69-26.25 9.06-0.65 0.17-1.3 0.34-1.97 0.52-29.54 7.73-59.3 10.1-89.78 9.42-0.81-0.01-1.62-0.03-2.46-0.04-18.52-0.38-36.72-4.1-54.54-8.96 3.6-2.4 4.5-2.1 8.69-1.64 9.68 0.84 19.33 0.86 29.04 0.88 3.17 0.01 6.34 0.04 9.51 0.07 18.23 0.1 36.07-1.73 53.88-5.62 0.99-0.21 1.97-0.43 2.99-0.64 20.99-4.63 41.14-11.46 60.71-20.34 2.18-0.71 2.18-0.71 5.18 0.29z" fill="#FAFAFA"/>
<path transform="translate(774.69 663.75)" d="m0 0c1.92-0.01 1.92-0.01 3.89-0.02 4.65 0.37 6.5 1.29 9.67 4.64 2.93 4.72 2.46 10.31 1.75 15.63-3.2 7.05-9.21 10.46-16.19 13.19-9.15 3.07-18.35 3.96-27.93 4.56-0.84 0.06-1.69 0.11-2.56 0.17-2.1 0.11-4.21 0.11-6.32 0.08l-2-2c0.38-10.34 6.77-19.57 13.6-26.8 7.45-6.83 16.05-9.49 26.09-9.45z" fill="#E66606"/>
<path transform="translate(1107,785)" d="m0 0c2.43 4.97 3.35 8.35 3 14-5.95 2.97-11.55 3.86-18.12 4.62-0.96 0.13-1.92 0.25-2.9 0.37-11.42 1.41-22.79 2.2-34.29 2.2h-3.42c-14.45-0.09-28.86-1.14-43.27-2.19v-2c-1.3 0.03-2.6 0.07-3.94 0.11-4.85-0.01-9.28-0.74-14-1.8-0.81-0.17-1.62-0.35-2.46-0.53-6.52-1.45-12.96-3.17-19.37-5.03-5.04-1.46-10.1-2.67-15.23-3.75v-3h2l1 2c2.25 0.4 2.25 0.4 4.94 0.5 3.67 0.21 7.17 0.69 10.77 1.43 42.46 8.77 88.01 6.76 129.29-6.44 2-0.49 2-0.49 6-0.49z" fill="#F9F9F8"/>
<path transform="translate(1222,748)" d="m0 0c-0.55 3.88-2.28 5.6-5.06 8.25-0.74 0.71-1.47 1.41-2.23 2.14-0.56 0.53-1.13 1.06-1.71 1.61-0.74-1.73-0.74-1.73-1-4 1.58-2.14 1.58-2.14 3.81-4.25 1.09-1.06 1.09-1.06 2.21-2.14 1.98-1.61 1.98-1.61 3.98-1.61z" fill="#D3681B"/>
<path transform="translate(1184,781)" d="m0 0c-0.58 3.35-1.59 4.94-4.06 7.25-0.82 0.78-0.82 0.78-1.66 1.58-0.42 0.38-0.85 0.77-1.28 1.17l-2-1v-2h2c0.27-0.6 0.54-1.2 0.81-1.81 2.82-5.19 2.82-5.19 6.19-5.19z" fill="#D1681D"/>
<path transform="translate(651,1162)" d="m0 0h8v1h-8v-1z"/>
<path transform="translate(617,1162)" d="m0 0h7v1h-7v-1z"/>
<path transform="translate(664,1160)" d="m0 0 2 1z"/>
</svg>
